solid ASCII
  facet normal -1.000000e+00 0.000000e+00 0.000000e+00
    outer loop
      vertex   3.750000e-01 2.050000e+01 -2.650000e+01
      vertex   3.750000e-01 2.050000e+01 -3.000000e+00
      vertex   3.750000e-01 2.087250e+01 -2.650000e+01
    endloop
  endfacet
  facet normal -1.000000e+00 0.000000e+00 0.000000e+00
    outer loop
      vertex   3.750000e-01 2.087250e+01 -2.650000e+01
      vertex   3.750000e-01 2.050000e+01 -3.000000e+00
      vertex   3.750000e-01 2.087250e+01 -3.000000e+00
    endloop
  endfacet
  facet normal 1.776357e-15 -0.000000e+00 1.000000e+00
    outer loop
      vertex   3.750000e-01 2.050000e+01 -3.000000e+00
      vertex   1.625000e+00 2.050000e+01 -3.000000e+00
      vertex   3.750000e-01 2.087250e+01 -3.000000e+00
    endloop
  endfacet
  facet normal 0.000000e+00 -5.960929e-15 1.000000e+00
    outer loop
      vertex   3.750000e-01 2.087250e+01 -3.000000e+00
      vertex   1.625000e+00 2.050000e+01 -3.000000e+00
      vertex   1.625000e+00 2.087250e+01 -3.000000e+00
    endloop
  endfacet
  facet normal 1.000000e+00 -0.000000e+00 0.000000e+00
    outer loop
      vertex   1.625000e+00 2.050000e+01 -3.000000e+00
      vertex   1.625000e+00 2.050000e+01 -2.650000e+01
      vertex   1.625000e+00 2.087250e+01 -3.000000e+00
    endloop
  endfacet
  facet normal 1.000000e+00 0.000000e+00 0.000000e+00
    outer loop
      vertex   1.625000e+00 2.087250e+01 -3.000000e+00
      vertex   1.625000e+00 2.050000e+01 -2.650000e+01
      vertex   1.625000e+00 2.087250e+01 -2.650000e+01
    endloop
  endfacet
  facet normal 0.000000e+00 1.000000e+00 0.000000e+00
    outer loop
      vertex   3.750000e-01 2.087250e+01 -2.650000e+01
      vertex   3.750000e-01 2.087250e+01 -3.000000e+00
      vertex   1.625000e+00 2.087250e+01 -2.650000e+01
    endloop
  endfacet
  facet normal 0.000000e+00 1.000000e+00 -0.000000e+00
    outer loop
      vertex   1.625000e+00 2.087250e+01 -2.650000e+01
      vertex   3.750000e-01 2.087250e+01 -3.000000e+00
      vertex   1.625000e+00 2.087250e+01 -3.000000e+00
    endloop
  endfacet
  facet normal -0.000000e+00 1.000000e+00 0.000000e+00
    outer loop
      vertex   1.625000e+00 2.050000e+01 -2.650000e+01
      vertex   1.625000e+00 2.050000e+01 -3.000000e+00
      vertex   2.000000e+00 2.050000e+01 -2.650000e+01
    endloop
  endfacet
  facet normal 0.000000e+00 1.000000e+00 -0.000000e+00
    outer loop
      vertex   2.000000e+00 2.050000e+01 -2.650000e+01
      vertex   1.625000e+00 2.050000e+01 -3.000000e+00
      vertex   2.000000e+00 2.050000e+01 0.000000e+00
    endloop
  endfacet
  facet normal 0.000000e+00 1.000000e+00 0.000000e+00
    outer loop
      vertex   2.000000e+00 2.050000e+01 0.000000e+00
      vertex   1.625000e+00 2.050000e+01 -3.000000e+00
      vertex   0.000000e+00 2.050000e+01 0.000000e+00
    endloop
  endfacet
  facet normal 0.000000e+00 1.000000e+00 0.000000e+00
    outer loop
      vertex   0.000000e+00 2.050000e+01 0.000000e+00
      vertex   1.625000e+00 2.050000e+01 -3.000000e+00
      vertex   3.750000e-01 2.050000e+01 -3.000000e+00
    endloop
  endfacet
  facet normal 0.000000e+00 1.000000e+00 0.000000e+00
    outer loop
      vertex   0.000000e+00 2.050000e+01 0.000000e+00
      vertex   3.750000e-01 2.050000e+01 -3.000000e+00
      vertex   -3.081488e-32 2.050000e+01 -2.650000e+01
    endloop
  endfacet
  facet normal 0.000000e+00 1.000000e+00 0.000000e+00
    outer loop
      vertex   -3.081488e-32 2.050000e+01 -2.650000e+01
      vertex   3.750000e-01 2.050000e+01 -3.000000e+00
      vertex   3.750000e-01 2.050000e+01 -2.650000e+01
    endloop
  endfacet
  facet normal -1.000000e+00 -0.000000e+00 -0.000000e+00
    outer loop
      vertex   3.750000e-01 0.000000e+00 -3.000000e+00
      vertex   3.750000e-01 0.000000e+00 -2.650000e+01
      vertex   3.750000e-01 -3.725000e-01 -3.000000e+00
    endloop
  endfacet
  facet normal -1.000000e+00 0.000000e+00 0.000000e+00
    outer loop
      vertex   3.750000e-01 -3.725000e-01 -3.000000e+00
      vertex   3.750000e-01 0.000000e+00 -2.650000e+01
      vertex   3.750000e-01 -3.725000e-01 -2.650000e+01
    endloop
  endfacet
  facet normal 1.776357e-15 5.960929e-15 1.000000e+00
    outer loop
      vertex   1.625000e+00 0.000000e+00 -3.000000e+00
      vertex   3.750000e-01 0.000000e+00 -3.000000e+00
      vertex   1.625000e+00 -3.725000e-01 -3.000000e+00
    endloop
  endfacet
  facet normal 0.000000e+00 0.000000e+00 1.000000e+00
    outer loop
      vertex   1.625000e+00 -3.725000e-01 -3.000000e+00
      vertex   3.750000e-01 0.000000e+00 -3.000000e+00
      vertex   3.750000e-01 -3.725000e-01 -3.000000e+00
    endloop
  endfacet
  facet normal 1.000000e+00 0.000000e+00 -0.000000e+00
    outer loop
      vertex   1.625000e+00 0.000000e+00 -2.650000e+01
      vertex   1.625000e+00 0.000000e+00 -3.000000e+00
      vertex   1.625000e+00 -3.725000e-01 -2.650000e+01
    endloop
  endfacet
  facet normal 1.000000e+00 0.000000e+00 0.000000e+00
    outer loop
      vertex   1.625000e+00 -3.725000e-01 -2.650000e+01
      vertex   1.625000e+00 0.000000e+00 -3.000000e+00
      vertex   1.625000e+00 -3.725000e-01 -3.000000e+00
    endloop
  endfacet
  facet normal -0.000000e+00 -1.000000e+00 0.000000e+00
    outer loop
      vertex   1.625000e+00 -3.725000e-01 -2.650000e+01
      vertex   1.625000e+00 -3.725000e-01 -3.000000e+00
      vertex   3.750000e-01 -3.725000e-01 -2.650000e+01
    endloop
  endfacet
  facet normal 0.000000e+00 -1.000000e+00 0.000000e+00
    outer loop
      vertex   3.750000e-01 -3.725000e-01 -2.650000e+01
      vertex   1.625000e+00 -3.725000e-01 -3.000000e+00
      vertex   3.750000e-01 -3.725000e-01 -3.000000e+00
    endloop
  endfacet
  facet normal -1.894781e-14 0.000000e+00 -1.000000e+00
    outer loop
      vertex   2.000000e+00 0.000000e+00 -2.650000e+01
      vertex   1.625000e+00 0.000000e+00 -2.650000e+01
      vertex   2.000000e+00 2.050000e+01 -2.650000e+01
    endloop
  endfacet
  facet normal -1.894781e-14 0.000000e+00 -1.000000e+00
    outer loop
      vertex   2.000000e+00 2.050000e+01 -2.650000e+01
      vertex   1.625000e+00 0.000000e+00 -2.650000e+01
      vertex   1.625000e+00 2.050000e+01 -2.650000e+01
    endloop
  endfacet
  facet normal 5.684342e-15 0.000000e+00 -1.000000e+00
    outer loop
      vertex   1.625000e+00 2.050000e+01 -2.650000e+01
      vertex   1.625000e+00 0.000000e+00 -2.650000e+01
      vertex   3.750000e-01 0.000000e+00 -2.650000e+01
    endloop
  endfacet
  facet normal 5.684342e-15 0.000000e+00 -1.000000e+00
    outer loop
      vertex   1.625000e+00 2.050000e+01 -2.650000e+01
      vertex   3.750000e-01 0.000000e+00 -2.650000e+01
      vertex   3.750000e-01 2.050000e+01 -2.650000e+01
    endloop
  endfacet
  facet normal 0.000000e+00 -0.000000e+00 -1.000000e+00
    outer loop
      vertex   3.750000e-01 2.050000e+01 -2.650000e+01
      vertex   3.750000e-01 0.000000e+00 -2.650000e+01
      vertex   -3.081488e-32 0.000000e+00 -2.650000e+01
    endloop
  endfacet
  facet normal -0.000000e+00 0.000000e+00 -1.000000e+00
    outer loop
      vertex   3.750000e-01 2.050000e+01 -2.650000e+01
      vertex   -3.081488e-32 0.000000e+00 -2.650000e+01
      vertex   -3.081488e-32 2.050000e+01 -2.650000e+01
    endloop
  endfacet
  facet normal 5.684342e-15 0.000000e+00 -1.000000e+00
    outer loop
      vertex   1.625000e+00 -3.725000e-01 -2.650000e+01
      vertex   3.750000e-01 -3.725000e-01 -2.650000e+01
      vertex   1.625000e+00 0.000000e+00 -2.650000e+01
    endloop
  endfacet
  facet normal 5.684342e-15 0.000000e+00 -1.000000e+00
    outer loop
      vertex   1.625000e+00 0.000000e+00 -2.650000e+01
      vertex   3.750000e-01 -3.725000e-01 -2.650000e+01
      vertex   3.750000e-01 0.000000e+00 -2.650000e+01
    endloop
  endfacet
  facet normal 5.684342e-15 0.000000e+00 -1.000000e+00
    outer loop
      vertex   3.750000e-01 2.087250e+01 -2.650000e+01
      vertex   1.625000e+00 2.087250e+01 -2.650000e+01
      vertex   3.750000e-01 2.050000e+01 -2.650000e+01
    endloop
  endfacet
  facet normal 5.684342e-15 0.000000e+00 -1.000000e+00
    outer loop
      vertex   3.750000e-01 2.050000e+01 -2.650000e+01
      vertex   1.625000e+00 2.087250e+01 -2.650000e+01
      vertex   1.625000e+00 2.050000e+01 -2.650000e+01
    endloop
  endfacet
  facet normal 1.000000e+00 -0.000000e+00 0.000000e+00
    outer loop
      vertex   2.000000e+00 0.000000e+00 0.000000e+00
      vertex   2.000000e+00 0.000000e+00 -2.650000e+01
      vertex   2.000000e+00 2.050000e+01 0.000000e+00
    endloop
  endfacet
  facet normal 1.000000e+00 0.000000e+00 0.000000e+00
    outer loop
      vertex   2.000000e+00 2.050000e+01 0.000000e+00
      vertex   2.000000e+00 0.000000e+00 -2.650000e+01
      vertex   2.000000e+00 2.050000e+01 -2.650000e+01
    endloop
  endfacet
  facet normal 0.000000e+00 0.000000e+00 1.000000e+00
    outer loop
      vertex   0.000000e+00 0.000000e+00 0.000000e+00
      vertex   2.000000e+00 0.000000e+00 0.000000e+00
      vertex   0.000000e+00 2.050000e+01 0.000000e+00
    endloop
  endfacet
  facet normal -0.000000e+00 0.000000e+00 1.000000e+00
    outer loop
      vertex   0.000000e+00 2.050000e+01 0.000000e+00
      vertex   2.000000e+00 0.000000e+00 0.000000e+00
      vertex   2.000000e+00 2.050000e+01 0.000000e+00
    endloop
  endfacet
  facet normal -1.000000e+00 0.000000e+00 1.162826e-33
    outer loop
      vertex   -3.081488e-32 0.000000e+00 -2.650000e+01
      vertex   0.000000e+00 0.000000e+00 0.000000e+00
      vertex   -3.081488e-32 2.050000e+01 -2.650000e+01
    endloop
  endfacet
  facet normal -1.000000e+00 0.000000e+00 1.162826e-33
    outer loop
      vertex   -3.081488e-32 2.050000e+01 -2.650000e+01
      vertex   0.000000e+00 0.000000e+00 0.000000e+00
      vertex   0.000000e+00 2.050000e+01 0.000000e+00
    endloop
  endfacet
  facet normal 0.000000e+00 -1.000000e+00 0.000000e+00
    outer loop
      vertex   1.625000e+00 0.000000e+00 -2.650000e+01
      vertex   2.000000e+00 0.000000e+00 -2.650000e+01
      vertex   1.625000e+00 0.000000e+00 -3.000000e+00
    endloop
  endfacet
  facet normal 0.000000e+00 -1.000000e+00 0.000000e+00
    outer loop
      vertex   1.625000e+00 0.000000e+00 -3.000000e+00
      vertex   2.000000e+00 0.000000e+00 -2.650000e+01
      vertex   2.000000e+00 0.000000e+00 0.000000e+00
    endloop
  endfacet
  facet normal 0.000000e+00 -1.000000e+00 0.000000e+00
    outer loop
      vertex   1.625000e+00 0.000000e+00 -3.000000e+00
      vertex   2.000000e+00 0.000000e+00 0.000000e+00
      vertex   0.000000e+00 0.000000e+00 0.000000e+00
    endloop
  endfacet
  facet normal 0.000000e+00 -1.000000e+00 0.000000e+00
    outer loop
      vertex   1.625000e+00 0.000000e+00 -3.000000e+00
      vertex   0.000000e+00 0.000000e+00 0.000000e+00
      vertex   3.750000e-01 0.000000e+00 -3.000000e+00
    endloop
  endfacet
  facet normal -0.000000e+00 -1.000000e+00 0.000000e+00
    outer loop
      vertex   3.750000e-01 0.000000e+00 -3.000000e+00
      vertex   0.000000e+00 0.000000e+00 0.000000e+00
      vertex   -3.081488e-32 0.000000e+00 -2.650000e+01
    endloop
  endfacet
  facet normal 0.000000e+00 -1.000000e+00 -0.000000e+00
    outer loop
      vertex   3.750000e-01 0.000000e+00 -3.000000e+00
      vertex   -3.081488e-32 0.000000e+00 -2.650000e+01
      vertex   3.750000e-01 0.000000e+00 -2.650000e+01
    endloop
  endfacet
endsolid
