solid ASCII
  facet normal 9.659258e-01 -2.588190e-01 0.000000e+00
    outer loop
      vertex   -1.978329e+01 -2.487893e+01 1.204490e+01
      vertex   -1.978329e+01 -2.487893e+01 1.597310e+01
      vertex   -2.031919e+01 -2.687893e+01 1.150900e+01
    endloop
  endfacet
  facet normal 9.659258e-01 -2.588190e-01 0.000000e+00
    outer loop
      vertex   -2.031919e+01 -2.687893e+01 1.150900e+01
      vertex   -1.978329e+01 -2.487893e+01 1.597310e+01
      vertex   -2.031919e+01 -2.687893e+01 1.650900e+01
    endloop
  endfacet
  facet normal 2.121383e-15 -2.588190e-01 9.659258e-01
    outer loop
      vertex   -1.085509e+01 -2.487893e+01 1.204490e+01
      vertex   -1.978329e+01 -2.487893e+01 1.204490e+01
      vertex   -1.031919e+01 -2.687893e+01 1.150900e+01
    endloop
  endfacet
  facet normal 2.206824e-15 -2.588190e-01 9.659258e-01
    outer loop
      vertex   -1.031919e+01 -2.687893e+01 1.150900e+01
      vertex   -1.978329e+01 -2.487893e+01 1.204490e+01
      vertex   -2.031919e+01 -2.687893e+01 1.150900e+01
    endloop
  endfacet
  facet normal -9.659258e-01 -2.588190e-01 -8.735948e-16
    outer loop
      vertex   -1.085509e+01 -2.487893e+01 1.597310e+01
      vertex   -1.085509e+01 -2.487893e+01 1.204490e+01
      vertex   -1.031919e+01 -2.687893e+01 1.650900e+01
    endloop
  endfacet
  facet normal -9.659258e-01 -2.588190e-01 -1.471216e-15
    outer loop
      vertex   -1.031919e+01 -2.687893e+01 1.650900e+01
      vertex   -1.085509e+01 -2.487893e+01 1.204490e+01
      vertex   -1.031919e+01 -2.687893e+01 1.150900e+01
    endloop
  endfacet
  facet normal 2.121383e-15 -2.588190e-01 -9.659258e-01
    outer loop
      vertex   -1.978329e+01 -2.487893e+01 1.597310e+01
      vertex   -1.085509e+01 -2.487893e+01 1.597310e+01
      vertex   -2.031919e+01 -2.687893e+01 1.650900e+01
    endloop
  endfacet
  facet normal 1.471216e-15 -2.588190e-01 -9.659258e-01
    outer loop
      vertex   -2.031919e+01 -2.687893e+01 1.650900e+01
      vertex   -1.085509e+01 -2.487893e+01 1.597310e+01
      vertex   -1.031919e+01 -2.687893e+01 1.650900e+01
    endloop
  endfacet
  facet normal -2.588190e-01 9.659258e-01 0.000000e+00
    outer loop
      vertex   -3.563239e+01 -1.363393e+01 1.597291e+01
      vertex   -3.563239e+01 -1.363393e+01 1.204471e+01
      vertex   -3.763239e+01 -1.416983e+01 1.650881e+01
    endloop
  endfacet
  facet normal -2.588190e-01 9.659258e-01 0.000000e+00
    outer loop
      vertex   -3.763239e+01 -1.416983e+01 1.650881e+01
      vertex   -3.563239e+01 -1.363393e+01 1.204471e+01
      vertex   -3.763239e+01 -1.416983e+01 1.150881e+01
    endloop
  endfacet
  facet normal -2.588190e-01 -1.647830e-15 -9.659258e-01
    outer loop
      vertex   -3.563239e+01 -4.705727e+00 1.597291e+01
      vertex   -3.563239e+01 -1.363393e+01 1.597291e+01
      vertex   -3.763239e+01 -4.169829e+00 1.650881e+01
    endloop
  endfacet
  facet normal -2.588190e-01 -9.195100e-16 -9.659258e-01
    outer loop
      vertex   -3.763239e+01 -4.169829e+00 1.650881e+01
      vertex   -3.563239e+01 -1.363393e+01 1.597291e+01
      vertex   -3.763239e+01 -1.416983e+01 1.650881e+01
    endloop
  endfacet
  facet normal -2.588190e-01 -9.659258e-01 1.310392e-15
    outer loop
      vertex   -3.563239e+01 -4.705727e+00 1.204471e+01
      vertex   -3.563239e+01 -4.705727e+00 1.597291e+01
      vertex   -3.763239e+01 -4.169829e+00 1.150881e+01
    endloop
  endfacet
  facet normal -2.588190e-01 -9.659258e-01 1.103412e-15
    outer loop
      vertex   -3.763239e+01 -4.169829e+00 1.150881e+01
      vertex   -3.563239e+01 -4.705727e+00 1.597291e+01
      vertex   -3.763239e+01 -4.169829e+00 1.650881e+01
    endloop
  endfacet
  facet normal -2.588190e-01 -1.840011e-15 9.659258e-01
    outer loop
      vertex   -3.563239e+01 -1.363393e+01 1.204471e+01
      vertex   -3.563239e+01 -4.705727e+00 1.204471e+01
      vertex   -3.763239e+01 -1.416983e+01 1.150881e+01
    endloop
  endfacet
  facet normal -2.588190e-01 -1.642799e-15 9.659258e-01
    outer loop
      vertex   -3.763239e+01 -1.416983e+01 1.150881e+01
      vertex   -3.563239e+01 -4.705727e+00 1.204471e+01
      vertex   -3.763239e+01 -4.169829e+00 1.150881e+01
    endloop
  endfacet
  facet normal -0.000000e+00 0.000000e+00 -1.000000e+00
    outer loop
      vertex   2.288270e+01 2.592107e+01 3.000000e+00
      vertex   -2.791730e+01 2.592107e+01 3.000000e+00
      vertex   2.288270e+01 2.792107e+01 3.000000e+00
    endloop
  endfacet
  facet normal 0.000000e+00 0.000000e+00 -1.000000e+00
    outer loop
      vertex   2.288270e+01 2.792107e+01 3.000000e+00
      vertex   -2.791730e+01 2.592107e+01 3.000000e+00
      vertex   -2.791730e+01 2.792107e+01 3.000000e+00
    endloop
  endfacet
  facet normal -1.000000e+00 -5.329071e-15 0.000000e+00
    outer loop
      vertex   2.288270e+01 2.592107e+01 1.000000e+00
      vertex   2.288270e+01 2.592107e+01 3.000000e+00
      vertex   2.288270e+01 2.792107e+01 1.000000e+00
    endloop
  endfacet
  facet normal -1.000000e+00 -5.329071e-15 0.000000e+00
    outer loop
      vertex   2.288270e+01 2.792107e+01 1.000000e+00
      vertex   2.288270e+01 2.592107e+01 3.000000e+00
      vertex   2.288270e+01 2.792107e+01 3.000000e+00
    endloop
  endfacet
  facet normal 0.000000e+00 -0.000000e+00 1.000000e+00
    outer loop
      vertex   -2.791730e+01 2.592107e+01 1.000000e+00
      vertex   2.288270e+01 2.592107e+01 1.000000e+00
      vertex   -2.791730e+01 2.792107e+01 1.000000e+00
    endloop
  endfacet
  facet normal -0.000000e+00 0.000000e+00 1.000000e+00
    outer loop
      vertex   -2.791730e+01 2.792107e+01 1.000000e+00
      vertex   2.288270e+01 2.592107e+01 1.000000e+00
      vertex   2.288270e+01 2.792107e+01 1.000000e+00
    endloop
  endfacet
  facet normal 1.000000e+00 3.552714e-15 0.000000e+00
    outer loop
      vertex   -2.791730e+01 2.592107e+01 3.000000e+00
      vertex   -2.791730e+01 2.592107e+01 1.000000e+00
      vertex   -2.791730e+01 2.792107e+01 3.000000e+00
    endloop
  endfacet
  facet normal 1.000000e+00 3.552714e-15 0.000000e+00
    outer loop
      vertex   -2.791730e+01 2.792107e+01 3.000000e+00
      vertex   -2.791730e+01 2.592107e+01 1.000000e+00
      vertex   -2.791730e+01 2.792107e+01 1.000000e+00
    endloop
  endfacet
  facet normal 0.000000e+00 0.000000e+00 -1.000000e+00
    outer loop
      vertex   -2.801239e+01 -2.487893e+01 3.000000e+00
      vertex   2.278761e+01 -2.487893e+01 3.000000e+00
      vertex   -2.801239e+01 -2.687893e+01 3.000000e+00
    endloop
  endfacet
  facet normal 0.000000e+00 0.000000e+00 -1.000000e+00
    outer loop
      vertex   -2.801239e+01 -2.687893e+01 3.000000e+00
      vertex   2.278761e+01 -2.487893e+01 3.000000e+00
      vertex   2.278761e+01 -2.687893e+01 3.000000e+00
    endloop
  endfacet
  facet normal 1.000000e+00 7.105427e-15 -0.000000e+00
    outer loop
      vertex   -2.801239e+01 -2.487893e+01 1.000000e+00
      vertex   -2.801239e+01 -2.487893e+01 3.000000e+00
      vertex   -2.801239e+01 -2.687893e+01 1.000000e+00
    endloop
  endfacet
  facet normal 1.000000e+00 7.105427e-15 -0.000000e+00
    outer loop
      vertex   -2.801239e+01 -2.687893e+01 1.000000e+00
      vertex   -2.801239e+01 -2.487893e+01 3.000000e+00
      vertex   -2.801239e+01 -2.687893e+01 3.000000e+00
    endloop
  endfacet
  facet normal 0.000000e+00 0.000000e+00 1.000000e+00
    outer loop
      vertex   2.278761e+01 -2.487893e+01 1.000000e+00
      vertex   -2.801239e+01 -2.487893e+01 1.000000e+00
      vertex   2.278761e+01 -2.687893e+01 1.000000e+00
    endloop
  endfacet
  facet normal 0.000000e+00 0.000000e+00 1.000000e+00
    outer loop
      vertex   2.278761e+01 -2.687893e+01 1.000000e+00
      vertex   -2.801239e+01 -2.487893e+01 1.000000e+00
      vertex   -2.801239e+01 -2.687893e+01 1.000000e+00
    endloop
  endfacet
  facet normal -1.000000e+00 -7.105427e-15 -0.000000e+00
    outer loop
      vertex   2.278761e+01 -2.487893e+01 3.000000e+00
      vertex   2.278761e+01 -2.487893e+01 1.000000e+00
      vertex   2.278761e+01 -2.687893e+01 3.000000e+00
    endloop
  endfacet
  facet normal -1.000000e+00 -7.105427e-15 -0.000000e+00
    outer loop
      vertex   2.278761e+01 -2.687893e+01 3.000000e+00
      vertex   2.278761e+01 -2.487893e+01 1.000000e+00
      vertex   2.278761e+01 -2.687893e+01 1.000000e+00
    endloop
  endfacet
  facet normal -5.968805e-15 1.000000e+00 -1.853864e-16
    outer loop
      vertex   -1.085509e+01 -2.487893e+01 1.597310e+01
      vertex   -1.978329e+01 -2.487893e+01 1.597310e+01
      vertex   -3.563239e+01 -2.487893e+01 2.800000e+01
    endloop
  endfacet
  facet normal -5.828127e-15 1.000000e+00 0.000000e+00
    outer loop
      vertex   -3.563239e+01 -2.487893e+01 2.800000e+01
      vertex   -1.978329e+01 -2.487893e+01 1.597310e+01
      vertex   -1.978329e+01 -2.487893e+01 1.204490e+01
    endloop
  endfacet
  facet normal -5.725015e-15 1.000000e+00 1.024264e-16
    outer loop
      vertex   -3.563239e+01 -2.487893e+01 2.800000e+01
      vertex   -1.978329e+01 -2.487893e+01 1.204490e+01
      vertex   -2.801239e+01 -2.487893e+01 3.000000e+00
    endloop
  endfacet
  facet normal -5.968805e-15 1.000000e+00 3.242275e-16
    outer loop
      vertex   -2.801239e+01 -2.487893e+01 3.000000e+00
      vertex   -1.978329e+01 -2.487893e+01 1.204490e+01
      vertex   -1.085509e+01 -2.487893e+01 1.204490e+01
    endloop
  endfacet
  facet normal -5.734695e-15 1.000000e+00 -1.198562e-16
    outer loop
      vertex   -2.801239e+01 -2.487893e+01 3.000000e+00
      vertex   -1.085509e+01 -2.487893e+01 1.204490e+01
      vertex   2.278761e+01 -2.487893e+01 3.000000e+00
    endloop
  endfacet
  facet normal -5.702472e-15 1.000000e+00 -1.222491e-29
    outer loop
      vertex   2.278761e+01 -2.487893e+01 3.000000e+00
      vertex   -1.085509e+01 -2.487893e+01 1.204490e+01
      vertex   -1.085509e+01 -2.487893e+01 1.597310e+01
    endloop
  endfacet
  facet normal -5.691150e-15 1.000000e+00 2.935999e-17
    outer loop
      vertex   2.278761e+01 -2.487893e+01 3.000000e+00
      vertex   -1.085509e+01 -2.487893e+01 1.597310e+01
      vertex   3.040761e+01 -2.487893e+01 2.800000e+01
    endloop
  endfacet
  facet normal -5.756214e-15 1.000000e+00 2.525851e-16
    outer loop
      vertex   3.040761e+01 -2.487893e+01 2.800000e+01
      vertex   -1.085509e+01 -2.487893e+01 1.597310e+01
      vertex   -3.563239e+01 -2.487893e+01 2.800000e+01
    endloop
  endfacet
  facet normal -6.061060e-15 1.000000e+00 0.000000e+00
    outer loop
      vertex   -2.801239e+01 -2.487893e+01 3.000000e+00
      vertex   -2.801239e+01 -2.487893e+01 1.000000e+00
      vertex   -3.563239e+01 -2.487893e+01 4.440892e-15
    endloop
  endfacet
  facet normal -5.734695e-15 1.000000e+00 -2.486900e-15
    outer loop
      vertex   -3.563239e+01 -2.487893e+01 4.440892e-15
      vertex   -2.801239e+01 -2.487893e+01 1.000000e+00
      vertex   2.278761e+01 -2.487893e+01 1.000000e+00
    endloop
  endfacet
  facet normal -5.756214e-15 1.000000e+00 -1.229786e-15
    outer loop
      vertex   -3.563239e+01 -2.487893e+01 4.440892e-15
      vertex   2.278761e+01 -2.487893e+01 1.000000e+00
      vertex   3.040761e+01 -2.487893e+01 4.440892e-15
    endloop
  endfacet
  facet normal -5.594825e-15 1.000000e+00 0.000000e+00
    outer loop
      vertex   3.040761e+01 -2.487893e+01 4.440892e-15
      vertex   2.278761e+01 -2.487893e+01 1.000000e+00
      vertex   2.278761e+01 -2.487893e+01 3.000000e+00
    endloop
  endfacet
  facet normal -5.594825e-15 1.000000e+00 0.000000e+00
    outer loop
      vertex   3.040761e+01 -2.487893e+01 4.440892e-15
      vertex   2.278761e+01 -2.487893e+01 3.000000e+00
      vertex   3.040761e+01 -2.487893e+01 2.800000e+01
    endloop
  endfacet
  facet normal -6.061060e-15 1.000000e+00 0.000000e+00
    outer loop
      vertex   -3.563239e+01 -2.487893e+01 2.800000e+01
      vertex   -2.801239e+01 -2.487893e+01 3.000000e+00
      vertex   -3.563239e+01 -2.487893e+01 4.440892e-15
    endloop
  endfacet
  facet normal 1.000000e+00 5.686867e-15 0.000000e+00
    outer loop
      vertex   -3.563239e+01 -1.363393e+01 1.597291e+01
      vertex   -3.563239e+01 -2.487893e+01 2.800000e+01
      vertex   -3.563239e+01 -1.363393e+01 1.204471e+01
    endloop
  endfacet
  facet normal 1.000000e+00 5.686867e-15 0.000000e+00
    outer loop
      vertex   -3.563239e+01 -1.363393e+01 1.204471e+01
      vertex   -3.563239e+01 -2.487893e+01 2.800000e+01
      vertex   -3.563239e+01 -2.487893e+01 4.440892e-15
    endloop
  endfacet
  facet normal 1.000000e+00 6.366725e-15 -6.347196e-16
    outer loop
      vertex   -3.563239e+01 -1.363393e+01 1.204471e+01
      vertex   -3.563239e+01 -2.487893e+01 4.440892e-15
      vertex   -3.563239e+01 -4.705727e+00 1.204471e+01
    endloop
  endfacet
  facet normal 1.000000e+00 5.594825e-15 6.581067e-16
    outer loop
      vertex   -3.563239e+01 -4.705727e+00 1.204471e+01
      vertex   -3.563239e+01 -2.487893e+01 4.440892e-15
      vertex   -3.563239e+01 2.592107e+01 4.440892e-15
    endloop
  endfacet
  facet normal 1.000000e+00 5.435808e-15 2.537653e-16
    outer loop
      vertex   -3.563239e+01 -4.705727e+00 1.204471e+01
      vertex   -3.563239e+01 2.592107e+01 4.440892e-15
      vertex   -3.563239e+01 2.592107e+01 2.800000e+01
    endloop
  endfacet
  facet normal 1.000000e+00 6.366725e-15 6.356494e-16
    outer loop
      vertex   -3.563239e+01 -1.363393e+01 1.597291e+01
      vertex   -3.563239e+01 -4.705727e+00 1.597291e+01
      vertex   -3.563239e+01 -2.487893e+01 2.800000e+01
    endloop
  endfacet
  facet normal 1.000000e+00 5.734695e-15 -4.244638e-16
    outer loop
      vertex   -3.563239e+01 -2.487893e+01 2.800000e+01
      vertex   -3.563239e+01 -4.705727e+00 1.597291e+01
      vertex   -3.563239e+01 2.592107e+01 2.800000e+01
    endloop
  endfacet
  facet normal 1.000000e+00 5.568009e-15 -6.714365e-30
    outer loop
      vertex   -3.563239e+01 2.592107e+01 2.800000e+01
      vertex   -3.563239e+01 -4.705727e+00 1.597291e+01
      vertex   -3.563239e+01 -4.705727e+00 1.204471e+01
    endloop
  endfacet
  facet normal 6.137654e-15 -1.000000e+00 0.000000e+00
    outer loop
      vertex   2.288270e+01 2.592107e+01 3.000000e+00
      vertex   2.288270e+01 2.592107e+01 1.000000e+00
      vertex   3.040761e+01 2.592107e+01 4.440892e-15
    endloop
  endfacet
  facet normal 5.664760e-15 -1.000000e+00 -3.558485e-15
    outer loop
      vertex   3.040761e+01 2.592107e+01 4.440892e-15
      vertex   2.288270e+01 2.592107e+01 1.000000e+00
      vertex   -2.791730e+01 2.592107e+01 1.000000e+00
    endloop
  endfacet
  facet normal 5.756214e-15 -1.000000e+00 1.775553e-15
    outer loop
      vertex   3.040761e+01 2.592107e+01 4.440892e-15
      vertex   -2.791730e+01 2.592107e+01 1.000000e+00
      vertex   -3.563239e+01 2.592107e+01 4.440892e-15
    endloop
  endfacet
  facet normal 5.986354e-15 -1.000000e+00 0.000000e+00
    outer loop
      vertex   -3.563239e+01 2.592107e+01 4.440892e-15
      vertex   -2.791730e+01 2.592107e+01 1.000000e+00
      vertex   -2.791730e+01 2.592107e+01 3.000000e+00
    endloop
  endfacet
  facet normal 5.986354e-15 -1.000000e+00 1.519129e-30
    outer loop
      vertex   -3.563239e+01 2.592107e+01 4.440892e-15
      vertex   -2.791730e+01 2.592107e+01 3.000000e+00
      vertex   -3.563239e+01 2.592107e+01 2.800000e+01
    endloop
  endfacet
  facet normal 5.756214e-15 -1.000000e+00 -7.102213e-17
    outer loop
      vertex   -3.563239e+01 2.592107e+01 2.800000e+01
      vertex   -2.791730e+01 2.592107e+01 3.000000e+00
      vertex   3.040761e+01 2.592107e+01 2.800000e+01
    endloop
  endfacet
  facet normal 5.664760e-15 -1.000000e+00 1.423394e-16
    outer loop
      vertex   3.040761e+01 2.592107e+01 2.800000e+01
      vertex   -2.791730e+01 2.592107e+01 3.000000e+00
      vertex   2.288270e+01 2.592107e+01 3.000000e+00
    endloop
  endfacet
  facet normal 6.137654e-15 -1.000000e+00 0.000000e+00
    outer loop
      vertex   3.040761e+01 2.592107e+01 2.800000e+01
      vertex   2.288270e+01 2.592107e+01 3.000000e+00
      vertex   3.040761e+01 2.592107e+01 4.440892e-15
    endloop
  endfacet
  facet normal -1.000000e+00 -5.664760e-15 0.000000e+00
    outer loop
      vertex   3.040761e+01 2.592107e+01 4.440892e-15
      vertex   3.040761e+01 -2.487893e+01 4.440892e-15
      vertex   3.040761e+01 2.592107e+01 2.800000e+01
    endloop
  endfacet
  facet normal -1.000000e+00 -5.664760e-15 0.000000e+00
    outer loop
      vertex   3.040761e+01 2.592107e+01 2.800000e+01
      vertex   3.040761e+01 -2.487893e+01 4.440892e-15
      vertex   3.040761e+01 -2.487893e+01 2.800000e+01
    endloop
  endfacet
  facet normal 1.483594e-29 -1.928672e-29 1.000000e+00
    outer loop
      vertex   3.040761e+01 2.592107e+01 4.440892e-15
      vertex   -3.563239e+01 2.592107e+01 4.440892e-15
      vertex   3.040761e+01 -2.487893e+01 4.440892e-15
    endloop
  endfacet
  facet normal 1.483594e-29 -1.928672e-29 1.000000e+00
    outer loop
      vertex   3.040761e+01 -2.487893e+01 4.440892e-15
      vertex   -3.563239e+01 2.592107e+01 4.440892e-15
      vertex   -3.563239e+01 -2.487893e+01 4.440892e-15
    endloop
  endfacet
  facet normal 5.130065e-15 -1.000000e+00 0.000000e+00
    outer loop
      vertex   -2.031919e+01 -2.687893e+01 1.650900e+01
      vertex   -3.763239e+01 -2.687893e+01 2.800000e+01
      vertex   -2.031919e+01 -2.687893e+01 1.150900e+01
    endloop
  endfacet
  facet normal 4.679446e-15 -1.000000e+00 -4.730860e-16
    outer loop
      vertex   -2.031919e+01 -2.687893e+01 1.150900e+01
      vertex   -3.763239e+01 -2.687893e+01 2.800000e+01
      vertex   -2.801239e+01 -2.687893e+01 3.000000e+00
    endloop
  endfacet
  facet normal 8.526513e-15 -1.000000e+00 -3.951314e-15
    outer loop
      vertex   -2.031919e+01 -2.687893e+01 1.150900e+01
      vertex   -2.801239e+01 -2.687893e+01 3.000000e+00
      vertex   -1.031919e+01 -2.687893e+01 1.150900e+01
    endloop
  endfacet
  facet normal 5.804631e-15 -1.000000e+00 1.708433e-15
    outer loop
      vertex   -1.031919e+01 -2.687893e+01 1.150900e+01
      vertex   -2.801239e+01 -2.687893e+01 3.000000e+00
      vertex   2.278761e+01 -2.687893e+01 3.000000e+00
    endloop
  endfacet
  facet normal 3.904564e-15 -1.000000e+00 -5.684342e-15
    outer loop
      vertex   -1.031919e+01 -2.687893e+01 1.150900e+01
      vertex   2.278761e+01 -2.687893e+01 3.000000e+00
      vertex   -1.031919e+01 -2.687893e+01 1.650900e+01
    endloop
  endfacet
  facet normal 6.181253e-15 -1.000000e+00 -1.048095e-16
    outer loop
      vertex   -1.031919e+01 -2.687893e+01 1.650900e+01
      vertex   2.278761e+01 -2.687893e+01 3.000000e+00
      vertex   3.240761e+01 -2.687893e+01 2.800000e+01
    endloop
  endfacet
  facet normal 5.833268e-15 -1.000000e+00 1.189100e-15
    outer loop
      vertex   -1.031919e+01 -2.687893e+01 1.650900e+01
      vertex   3.240761e+01 -2.687893e+01 2.800000e+01
      vertex   -3.763239e+01 -2.687893e+01 2.800000e+01
    endloop
  endfacet
  facet normal 5.684342e-15 -1.000000e+00 8.351150e-16
    outer loop
      vertex   -2.031919e+01 -2.687893e+01 1.650900e+01
      vertex   -1.031919e+01 -2.687893e+01 1.650900e+01
      vertex   -3.763239e+01 -2.687893e+01 2.800000e+01
    endloop
  endfacet
  facet normal 5.908879e-15 -1.000000e+00 0.000000e+00
    outer loop
      vertex   2.278761e+01 -2.687893e+01 3.000000e+00
      vertex   2.278761e+01 -2.687893e+01 1.000000e+00
      vertex   3.240761e+01 -2.687893e+01 -2.000000e+00
    endloop
  endfacet
  facet normal 5.804631e-15 -1.000000e+00 -3.342908e-16
    outer loop
      vertex   3.240761e+01 -2.687893e+01 -2.000000e+00
      vertex   2.278761e+01 -2.687893e+01 1.000000e+00
      vertex   -2.801239e+01 -2.687893e+01 1.000000e+00
    endloop
  endfacet
  facet normal 5.833268e-15 -1.000000e+00 2.424610e-16
    outer loop
      vertex   3.240761e+01 -2.687893e+01 -2.000000e+00
      vertex   -2.801239e+01 -2.687893e+01 1.000000e+00
      vertex   -3.763239e+01 -2.687893e+01 -2.000000e+00
    endloop
  endfacet
  facet normal 5.908879e-15 -1.000000e+00 0.000000e+00
    outer loop
      vertex   -3.763239e+01 -2.687893e+01 -2.000000e+00
      vertex   -2.801239e+01 -2.687893e+01 1.000000e+00
      vertex   -2.801239e+01 -2.687893e+01 3.000000e+00
    endloop
  endfacet
  facet normal 5.908879e-15 -1.000000e+00 0.000000e+00
    outer loop
      vertex   -3.763239e+01 -2.687893e+01 -2.000000e+00
      vertex   -2.801239e+01 -2.687893e+01 3.000000e+00
      vertex   -3.763239e+01 -2.687893e+01 2.800000e+01
    endloop
  endfacet
  facet normal 5.908879e-15 -1.000000e+00 0.000000e+00
    outer loop
      vertex   3.240761e+01 -2.687893e+01 2.800000e+01
      vertex   2.278761e+01 -2.687893e+01 3.000000e+00
      vertex   3.240761e+01 -2.687893e+01 -2.000000e+00
    endloop
  endfacet
  facet normal -1.000000e+00 -3.552714e-15 3.490788e-15
    outer loop
      vertex   -3.763239e+01 -4.169829e+00 1.650881e+01
      vertex   -3.763239e+01 -1.416983e+01 1.650881e+01
      vertex   -3.763239e+01 -2.687893e+01 2.800000e+01
    endloop
  endfacet
  facet normal -1.000000e+00 -6.708979e-15 0.000000e+00
    outer loop
      vertex   -3.763239e+01 -2.687893e+01 2.800000e+01
      vertex   -3.763239e+01 -1.416983e+01 1.650881e+01
      vertex   -3.763239e+01 -1.416983e+01 1.150881e+01
    endloop
  endfacet
  facet normal -1.000000e+00 -6.708979e-15 -0.000000e+00
    outer loop
      vertex   -3.763239e+01 -2.687893e+01 2.800000e+01
      vertex   -3.763239e+01 -1.416983e+01 1.150881e+01
      vertex   -3.763239e+01 -2.687893e+01 -2.000000e+00
    endloop
  endfacet
  facet normal -1.000000e+00 -5.684342e-15 -9.639800e-16
    outer loop
      vertex   -3.763239e+01 -2.687893e+01 -2.000000e+00
      vertex   -3.763239e+01 -1.416983e+01 1.150881e+01
      vertex   -3.763239e+01 -4.169829e+00 1.150881e+01
    endloop
  endfacet
  facet normal -1.000000e+00 -5.834749e-15 -7.111372e-16
    outer loop
      vertex   -3.763239e+01 -2.687893e+01 -2.000000e+00
      vertex   -3.763239e+01 -4.169829e+00 1.150881e+01
      vertex   -3.763239e+01 2.792107e+01 -2.000000e+00
    endloop
  endfacet
  facet normal -1.000000e+00 -5.535392e-15 0.000000e+00
    outer loop
      vertex   -3.763239e+01 2.792107e+01 -2.000000e+00
      vertex   -3.763239e+01 -4.169829e+00 1.150881e+01
      vertex   -3.763239e+01 2.792107e+01 2.800000e+01
    endloop
  endfacet
  facet normal -1.000000e+00 -7.726237e-15 4.263256e-15
    outer loop
      vertex   -3.763239e+01 2.792107e+01 2.800000e+01
      vertex   -3.763239e+01 -4.169829e+00 1.150881e+01
      vertex   -3.763239e+01 -4.169829e+00 1.650881e+01
    endloop
  endfacet
  facet normal -1.000000e+00 -5.834749e-15 -1.019012e-15
    outer loop
      vertex   -3.763239e+01 2.792107e+01 2.800000e+01
      vertex   -3.763239e+01 -4.169829e+00 1.650881e+01
      vertex   -3.763239e+01 -2.687893e+01 2.800000e+01
    endloop
  endfacet
  facet normal -5.664760e-15 1.000000e+00 -2.218692e-16
    outer loop
      vertex   2.288270e+01 2.792107e+01 1.000000e+00
      vertex   3.240761e+01 2.792107e+01 -2.000000e+00
      vertex   -2.791730e+01 2.792107e+01 1.000000e+00
    endloop
  endfacet
  facet normal -5.782544e-15 1.000000e+00 -2.590299e-15
    outer loop
      vertex   -2.791730e+01 2.792107e+01 1.000000e+00
      vertex   3.240761e+01 2.792107e+01 -2.000000e+00
      vertex   -3.763239e+01 2.792107e+01 -2.000000e+00
    endloop
  endfacet
  facet normal -6.582423e-15 1.000000e+00 0.000000e+00
    outer loop
      vertex   -2.791730e+01 2.792107e+01 1.000000e+00
      vertex   -3.763239e+01 2.792107e+01 -2.000000e+00
      vertex   -2.791730e+01 2.792107e+01 3.000000e+00
    endloop
  endfacet
  facet normal -6.582423e-15 1.000000e+00 0.000000e+00
    outer loop
      vertex   -2.791730e+01 2.792107e+01 3.000000e+00
      vertex   -3.763239e+01 2.792107e+01 -2.000000e+00
      vertex   -3.763239e+01 2.792107e+01 2.800000e+01
    endloop
  endfacet
  facet normal -5.782544e-15 1.000000e+00 3.108359e-16
    outer loop
      vertex   -2.791730e+01 2.792107e+01 3.000000e+00
      vertex   -3.763239e+01 2.792107e+01 2.800000e+01
      vertex   3.240761e+01 2.792107e+01 2.800000e+01
    endloop
  endfacet
  facet normal -5.594879e-15 1.000000e+00 0.000000e+00
    outer loop
      vertex   2.288270e+01 2.792107e+01 1.000000e+00
      vertex   2.288270e+01 2.792107e+01 3.000000e+00
      vertex   3.240761e+01 2.792107e+01 -2.000000e+00
    endloop
  endfacet
  facet normal -5.594879e-15 1.000000e+00 0.000000e+00
    outer loop
      vertex   3.240761e+01 2.792107e+01 -2.000000e+00
      vertex   2.288270e+01 2.792107e+01 3.000000e+00
      vertex   3.240761e+01 2.792107e+01 2.800000e+01
    endloop
  endfacet
  facet normal -5.664760e-15 1.000000e+00 2.662431e-17
    outer loop
      vertex   3.240761e+01 2.792107e+01 2.800000e+01
      vertex   2.288270e+01 2.792107e+01 3.000000e+00
      vertex   -2.791730e+01 2.792107e+01 3.000000e+00
    endloop
  endfacet
  facet normal 1.000000e+00 5.834749e-15 -0.000000e+00
    outer loop
      vertex   3.240761e+01 -2.687893e+01 -2.000000e+00
      vertex   3.240761e+01 2.792107e+01 -2.000000e+00
      vertex   3.240761e+01 -2.687893e+01 2.800000e+01
    endloop
  endfacet
  facet normal 1.000000e+00 5.834749e-15 0.000000e+00
    outer loop
      vertex   3.240761e+01 -2.687893e+01 2.800000e+01
      vertex   3.240761e+01 2.792107e+01 -2.000000e+00
      vertex   3.240761e+01 2.792107e+01 2.800000e+01
    endloop
  endfacet
  facet normal 0.000000e+00 0.000000e+00 1.000000e+00
    outer loop
      vertex   3.040761e+01 2.592107e+01 2.800000e+01
      vertex   3.040761e+01 -2.487893e+01 2.800000e+01
      vertex   3.240761e+01 -2.687893e+01 2.800000e+01
    endloop
  endfacet
  facet normal 0.000000e+00 0.000000e+00 1.000000e+00
    outer loop
      vertex   3.240761e+01 -2.687893e+01 2.800000e+01
      vertex   3.040761e+01 -2.487893e+01 2.800000e+01
      vertex   -3.563239e+01 -2.487893e+01 2.800000e+01
    endloop
  endfacet
  facet normal 0.000000e+00 0.000000e+00 1.000000e+00
    outer loop
      vertex   3.240761e+01 -2.687893e+01 2.800000e+01
      vertex   -3.563239e+01 -2.487893e+01 2.800000e+01
      vertex   -3.763239e+01 -2.687893e+01 2.800000e+01
    endloop
  endfacet
  facet normal 0.000000e+00 0.000000e+00 1.000000e+00
    outer loop
      vertex   -3.763239e+01 -2.687893e+01 2.800000e+01
      vertex   -3.563239e+01 -2.487893e+01 2.800000e+01
      vertex   -3.563239e+01 2.592107e+01 2.800000e+01
    endloop
  endfacet
  facet normal 0.000000e+00 -0.000000e+00 1.000000e+00
    outer loop
      vertex   -3.763239e+01 -2.687893e+01 2.800000e+01
      vertex   -3.563239e+01 2.592107e+01 2.800000e+01
      vertex   -3.763239e+01 2.792107e+01 2.800000e+01
    endloop
  endfacet
  facet normal 0.000000e+00 0.000000e+00 1.000000e+00
    outer loop
      vertex   -3.763239e+01 2.792107e+01 2.800000e+01
      vertex   -3.563239e+01 2.592107e+01 2.800000e+01
      vertex   3.040761e+01 2.592107e+01 2.800000e+01
    endloop
  endfacet
  facet normal -0.000000e+00 0.000000e+00 1.000000e+00
    outer loop
      vertex   -3.763239e+01 2.792107e+01 2.800000e+01
      vertex   3.040761e+01 2.592107e+01 2.800000e+01
      vertex   3.240761e+01 2.792107e+01 2.800000e+01
    endloop
  endfacet
  facet normal 0.000000e+00 0.000000e+00 1.000000e+00
    outer loop
      vertex   3.240761e+01 2.792107e+01 2.800000e+01
      vertex   3.040761e+01 2.592107e+01 2.800000e+01
      vertex   3.240761e+01 -2.687893e+01 2.800000e+01
    endloop
  endfacet
  facet normal -0.000000e+00 0.000000e+00 -1.000000e+00
    outer loop
      vertex   3.240761e+01 -2.687893e+01 -2.000000e+00
      vertex   -3.763239e+01 -2.687893e+01 -2.000000e+00
      vertex   3.240761e+01 2.792107e+01 -2.000000e+00
    endloop
  endfacet
  facet normal 0.000000e+00 0.000000e+00 -1.000000e+00
    outer loop
      vertex   3.240761e+01 2.792107e+01 -2.000000e+00
      vertex   -3.763239e+01 -2.687893e+01 -2.000000e+00
      vertex   -3.763239e+01 2.792107e+01 -2.000000e+00
    endloop
  endfacet
endsolid
