solid ASCII
  facet normal 0.000000e+00 0.000000e+00 -1.000000e+00
    outer loop
      vertex   2.266761e+01 2.792107e+01 5.500000e+00
      vertex   -2.813239e+01 2.792107e+01 5.500000e+00
      vertex   2.266761e+01 2.992107e+01 5.500000e+00
    endloop
  endfacet
  facet normal -0.000000e+00 0.000000e+00 -1.000000e+00
    outer loop
      vertex   2.266761e+01 2.992107e+01 5.500000e+00
      vertex   -2.813239e+01 2.792107e+01 5.500000e+00
      vertex   -2.813239e+01 2.992107e+01 5.500000e+00
    endloop
  endfacet
  facet normal -1.000000e+00 0.000000e+00 0.000000e+00
    outer loop
      vertex   2.266761e+01 2.792107e+01 2.000000e+00
      vertex   2.266761e+01 2.792107e+01 5.500000e+00
      vertex   2.266761e+01 2.992107e+01 2.000000e+00
    endloop
  endfacet
  facet normal -1.000000e+00 0.000000e+00 0.000000e+00
    outer loop
      vertex   2.266761e+01 2.992107e+01 2.000000e+00
      vertex   2.266761e+01 2.792107e+01 5.500000e+00
      vertex   2.266761e+01 2.992107e+01 5.500000e+00
    endloop
  endfacet
  facet normal 0.000000e+00 0.000000e+00 1.000000e+00
    outer loop
      vertex   -2.813239e+01 2.792107e+01 2.000000e+00
      vertex   2.266761e+01 2.792107e+01 2.000000e+00
      vertex   -2.813239e+01 2.992107e+01 2.000000e+00
    endloop
  endfacet
  facet normal -0.000000e+00 0.000000e+00 1.000000e+00
    outer loop
      vertex   -2.813239e+01 2.992107e+01 2.000000e+00
      vertex   2.266761e+01 2.792107e+01 2.000000e+00
      vertex   2.266761e+01 2.992107e+01 2.000000e+00
    endloop
  endfacet
  facet normal 1.000000e+00 -0.000000e+00 0.000000e+00
    outer loop
      vertex   -2.813239e+01 2.792107e+01 5.500000e+00
      vertex   -2.813239e+01 2.792107e+01 2.000000e+00
      vertex   -2.813239e+01 2.992107e+01 5.500000e+00
    endloop
  endfacet
  facet normal 1.000000e+00 0.000000e+00 0.000000e+00
    outer loop
      vertex   -2.813239e+01 2.992107e+01 5.500000e+00
      vertex   -2.813239e+01 2.792107e+01 2.000000e+00
      vertex   -2.813239e+01 2.992107e+01 2.000000e+00
    endloop
  endfacet
  facet normal 9.659258e-01 -2.588190e-01 0.000000e+00
    outer loop
      vertex   -2.103329e+01 -2.687893e+01 1.079490e+01
      vertex   -2.103329e+01 -2.687893e+01 1.722310e+01
      vertex   -2.156919e+01 -2.887893e+01 1.025900e+01
    endloop
  endfacet
  facet normal 9.659258e-01 -2.588190e-01 -4.575544e-16
    outer loop
      vertex   -2.156919e+01 -2.887893e+01 1.025900e+01
      vertex   -2.103329e+01 -2.687893e+01 1.722310e+01
      vertex   -2.156919e+01 -2.887893e+01 1.775900e+01
    endloop
  endfacet
  facet normal 4.504196e-16 -2.588190e-01 9.659258e-01
    outer loop
      vertex   -9.605087e+00 -2.687893e+01 1.079490e+01
      vertex   -2.103329e+01 -2.687893e+01 1.079490e+01
      vertex   -9.069188e+00 -2.887893e+01 1.025900e+01
    endloop
  endfacet
  facet normal 6.620472e-16 -2.588190e-01 9.659258e-01
    outer loop
      vertex   -9.069188e+00 -2.887893e+01 1.025900e+01
      vertex   -2.103329e+01 -2.687893e+01 1.079490e+01
      vertex   -2.156919e+01 -2.887893e+01 1.025900e+01
    endloop
  endfacet
  facet normal -9.659258e-01 -2.588190e-01 -8.007660e-16
    outer loop
      vertex   -9.605087e+00 -2.687893e+01 1.722310e+01
      vertex   -9.605087e+00 -2.687893e+01 1.079490e+01
      vertex   -9.069188e+00 -2.887893e+01 1.775900e+01
    endloop
  endfacet
  facet normal -9.659258e-01 -2.588190e-01 -1.103412e-15
    outer loop
      vertex   -9.069188e+00 -2.887893e+01 1.775900e+01
      vertex   -9.605087e+00 -2.687893e+01 1.079490e+01
      vertex   -9.069188e+00 -2.887893e+01 1.025900e+01
    endloop
  endfacet
  facet normal -3.002797e-16 -2.588190e-01 -9.659258e-01
    outer loop
      vertex   -2.103329e+01 -2.687893e+01 1.722310e+01
      vertex   -9.605087e+00 -2.687893e+01 1.722310e+01
      vertex   -2.156919e+01 -2.887893e+01 1.775900e+01
    endloop
  endfacet
  facet normal 0.000000e+00 -2.588190e-01 -9.659258e-01
    outer loop
      vertex   -2.156919e+01 -2.887893e+01 1.775900e+01
      vertex   -9.605087e+00 -2.687893e+01 1.722310e+01
      vertex   -9.069188e+00 -2.887893e+01 1.775900e+01
    endloop
  endfacet
  facet normal -2.588190e-01 9.659258e-01 0.000000e+00
    outer loop
      vertex   -3.763239e+01 -1.488393e+01 1.722291e+01
      vertex   -3.763239e+01 -1.488393e+01 1.079471e+01
      vertex   -3.963239e+01 -1.541983e+01 1.775881e+01
    endloop
  endfacet
  facet normal -2.588190e-01 9.659258e-01 0.000000e+00
    outer loop
      vertex   -3.963239e+01 -1.541983e+01 1.775881e+01
      vertex   -3.763239e+01 -1.488393e+01 1.079471e+01
      vertex   -3.963239e+01 -1.541983e+01 1.025881e+01
    endloop
  endfacet
  facet normal -2.588190e-01 -0.000000e+00 -9.659258e-01
    outer loop
      vertex   -3.763239e+01 -3.455727e+00 1.722291e+01
      vertex   -3.763239e+01 -1.488393e+01 1.722291e+01
      vertex   -3.963239e+01 -2.919829e+00 1.775881e+01
    endloop
  endfacet
  facet normal -2.588190e-01 1.668322e-16 -9.659258e-01
    outer loop
      vertex   -3.963239e+01 -2.919829e+00 1.775881e+01
      vertex   -3.763239e+01 -1.488393e+01 1.722291e+01
      vertex   -3.963239e+01 -1.541983e+01 1.775881e+01
    endloop
  endfacet
  facet normal -2.588190e-01 -9.659258e-01 8.674965e-16
    outer loop
      vertex   -3.763239e+01 -3.455727e+00 1.079471e+01
      vertex   -3.763239e+01 -3.455727e+00 1.722291e+01
      vertex   -3.963239e+01 -2.919829e+00 1.025881e+01
    endloop
  endfacet
  facet normal -2.588190e-01 -9.659258e-01 7.356080e-16
    outer loop
      vertex   -3.963239e+01 -2.919829e+00 1.025881e+01
      vertex   -3.763239e+01 -3.455727e+00 1.722291e+01
      vertex   -3.963239e+01 -2.919829e+00 1.775881e+01
    endloop
  endfacet
  facet normal -2.588190e-01 -1.501399e-16 9.659258e-01
    outer loop
      vertex   -3.763239e+01 -1.488393e+01 1.079471e+01
      vertex   -3.763239e+01 -3.455727e+00 1.079471e+01
      vertex   -3.963239e+01 -1.541983e+01 1.025881e+01
    endloop
  endfacet
  facet normal -2.588190e-01 -2.745326e-16 9.659258e-01
    outer loop
      vertex   -3.963239e+01 -1.541983e+01 1.025881e+01
      vertex   -3.763239e+01 -3.455727e+00 1.079471e+01
      vertex   -3.963239e+01 -2.919829e+00 1.025881e+01
    endloop
  endfacet
  facet normal 0.000000e+00 0.000000e+00 -1.000000e+00
    outer loop
      vertex   -2.813239e+01 -2.687893e+01 5.500000e+00
      vertex   2.266761e+01 -2.687893e+01 5.500000e+00
      vertex   -2.813239e+01 -2.887893e+01 5.500000e+00
    endloop
  endfacet
  facet normal 0.000000e+00 0.000000e+00 -1.000000e+00
    outer loop
      vertex   -2.813239e+01 -2.887893e+01 5.500000e+00
      vertex   2.266761e+01 -2.687893e+01 5.500000e+00
      vertex   2.266761e+01 -2.887893e+01 5.500000e+00
    endloop
  endfacet
  facet normal 1.000000e+00 0.000000e+00 -0.000000e+00
    outer loop
      vertex   -2.813239e+01 -2.687893e+01 2.000000e+00
      vertex   -2.813239e+01 -2.687893e+01 5.500000e+00
      vertex   -2.813239e+01 -2.887893e+01 2.000000e+00
    endloop
  endfacet
  facet normal 1.000000e+00 0.000000e+00 0.000000e+00
    outer loop
      vertex   -2.813239e+01 -2.887893e+01 2.000000e+00
      vertex   -2.813239e+01 -2.687893e+01 5.500000e+00
      vertex   -2.813239e+01 -2.887893e+01 5.500000e+00
    endloop
  endfacet
  facet normal 0.000000e+00 0.000000e+00 1.000000e+00
    outer loop
      vertex   2.266761e+01 -2.687893e+01 2.000000e+00
      vertex   -2.813239e+01 -2.687893e+01 2.000000e+00
      vertex   2.266761e+01 -2.887893e+01 2.000000e+00
    endloop
  endfacet
  facet normal 0.000000e+00 0.000000e+00 1.000000e+00
    outer loop
      vertex   2.266761e+01 -2.887893e+01 2.000000e+00
      vertex   -2.813239e+01 -2.687893e+01 2.000000e+00
      vertex   -2.813239e+01 -2.887893e+01 2.000000e+00
    endloop
  endfacet
  facet normal -1.000000e+00 -0.000000e+00 -0.000000e+00
    outer loop
      vertex   2.266761e+01 -2.687893e+01 5.500000e+00
      vertex   2.266761e+01 -2.687893e+01 2.000000e+00
      vertex   2.266761e+01 -2.887893e+01 5.500000e+00
    endloop
  endfacet
  facet normal -1.000000e+00 0.000000e+00 0.000000e+00
    outer loop
      vertex   2.266761e+01 -2.887893e+01 5.500000e+00
      vertex   2.266761e+01 -2.687893e+01 2.000000e+00
      vertex   2.266761e+01 -2.887893e+01 2.000000e+00
    endloop
  endfacet
  facet normal -1.000000e+00 0.000000e+00 0.000000e+00
    outer loop
      vertex   3.240761e+01 2.792107e+01 0.000000e+00
      vertex   3.240761e+01 -2.687893e+01 0.000000e+00
      vertex   3.240761e+01 2.792107e+01 2.800000e+01
    endloop
  endfacet
  facet normal -1.000000e+00 -0.000000e+00 0.000000e+00
    outer loop
      vertex   3.240761e+01 2.792107e+01 2.800000e+01
      vertex   3.240761e+01 -2.687893e+01 0.000000e+00
      vertex   3.240761e+01 -2.687893e+01 2.800000e+01
    endloop
  endfacet
  facet normal 0.000000e+00 1.000000e+00 -0.000000e+00
    outer loop
      vertex   -2.103329e+01 -2.687893e+01 1.079490e+01
      vertex   -2.813239e+01 -2.687893e+01 5.500000e+00
      vertex   -2.103329e+01 -2.687893e+01 1.722310e+01
    endloop
  endfacet
  facet normal -1.536295e-16 1.000000e+00 9.303260e-17
    outer loop
      vertex   -2.103329e+01 -2.687893e+01 1.722310e+01
      vertex   -2.813239e+01 -2.687893e+01 5.500000e+00
      vertex   -3.763239e+01 -2.687893e+01 2.800000e+01
    endloop
  endfacet
  facet normal 1.024823e-31 1.000000e+00 3.296602e-16
    outer loop
      vertex   -2.103329e+01 -2.687893e+01 1.722310e+01
      vertex   -3.763239e+01 -2.687893e+01 2.800000e+01
      vertex   -9.605087e+00 -2.687893e+01 1.722310e+01
    endloop
  endfacet
  facet normal 0.000000e+00 1.000000e+00 3.296602e-16
    outer loop
      vertex   -9.605087e+00 -2.687893e+01 1.722310e+01
      vertex   -3.763239e+01 -2.687893e+01 2.800000e+01
      vertex   3.240761e+01 -2.687893e+01 2.800000e+01
    endloop
  endfacet
  facet normal 4.956313e-17 1.000000e+00 1.364431e-16
    outer loop
      vertex   -9.605087e+00 -2.687893e+01 1.722310e+01
      vertex   3.240761e+01 -2.687893e+01 2.800000e+01
      vertex   2.266761e+01 -2.687893e+01 5.500000e+00
    endloop
  endfacet
  facet normal 3.647550e-16 1.000000e+00 0.000000e+00
    outer loop
      vertex   2.266761e+01 -2.687893e+01 5.500000e+00
      vertex   3.240761e+01 -2.687893e+01 2.800000e+01
      vertex   3.240761e+01 -2.687893e+01 0.000000e+00
    endloop
  endfacet
  facet normal 3.647550e-16 1.000000e+00 0.000000e+00
    outer loop
      vertex   2.266761e+01 -2.687893e+01 5.500000e+00
      vertex   3.240761e+01 -2.687893e+01 0.000000e+00
      vertex   2.266761e+01 -2.687893e+01 2.000000e+00
    endloop
  endfacet
  facet normal 5.072407e-17 1.000000e+00 -1.529331e-15
    outer loop
      vertex   2.266761e+01 -2.687893e+01 2.000000e+00
      vertex   3.240761e+01 -2.687893e+01 0.000000e+00
      vertex   -3.763239e+01 -2.687893e+01 0.000000e+00
    endloop
  endfacet
  facet normal 0.000000e+00 1.000000e+00 0.000000e+00
    outer loop
      vertex   2.266761e+01 -2.687893e+01 2.000000e+00
      vertex   -3.763239e+01 -2.687893e+01 0.000000e+00
      vertex   -2.813239e+01 -2.687893e+01 2.000000e+00
    endloop
  endfacet
  facet normal 0.000000e+00 1.000000e+00 -0.000000e+00
    outer loop
      vertex   -2.813239e+01 -2.687893e+01 2.000000e+00
      vertex   -3.763239e+01 -2.687893e+01 0.000000e+00
      vertex   -2.813239e+01 -2.687893e+01 5.500000e+00
    endloop
  endfacet
  facet normal -7.345837e-17 1.000000e+00 1.268826e-16
    outer loop
      vertex   -2.813239e+01 -2.687893e+01 5.500000e+00
      vertex   -3.763239e+01 -2.687893e+01 0.000000e+00
      vertex   -3.763239e+01 -2.687893e+01 2.800000e+01
    endloop
  endfacet
  facet normal 0.000000e+00 1.000000e+00 0.000000e+00
    outer loop
      vertex   -2.103329e+01 -2.687893e+01 1.079490e+01
      vertex   -9.605087e+00 -2.687893e+01 1.079490e+01
      vertex   -2.813239e+01 -2.687893e+01 5.500000e+00
    endloop
  endfacet
  facet normal 0.000000e+00 1.000000e+00 0.000000e+00
    outer loop
      vertex   -2.813239e+01 -2.687893e+01 5.500000e+00
      vertex   -9.605087e+00 -2.687893e+01 1.079490e+01
      vertex   2.266761e+01 -2.687893e+01 5.500000e+00
    endloop
  endfacet
  facet normal 0.000000e+00 1.000000e+00 0.000000e+00
    outer loop
      vertex   2.266761e+01 -2.687893e+01 5.500000e+00
      vertex   -9.605087e+00 -2.687893e+01 1.079490e+01
      vertex   -9.605087e+00 -2.687893e+01 1.722310e+01
    endloop
  endfacet
  facet normal 1.000000e+00 0.000000e+00 0.000000e+00
    outer loop
      vertex   -3.763239e+01 -1.488393e+01 1.722291e+01
      vertex   -3.763239e+01 -2.687893e+01 2.800000e+01
      vertex   -3.763239e+01 -1.488393e+01 1.079471e+01
    endloop
  endfacet
  facet normal 1.000000e+00 0.000000e+00 0.000000e+00
    outer loop
      vertex   -3.763239e+01 -1.488393e+01 1.079471e+01
      vertex   -3.763239e+01 -2.687893e+01 2.800000e+01
      vertex   -3.763239e+01 -2.687893e+01 0.000000e+00
    endloop
  endfacet
  facet normal 1.000000e+00 -0.000000e+00 0.000000e+00
    outer loop
      vertex   -3.763239e+01 -1.488393e+01 1.079471e+01
      vertex   -3.763239e+01 -2.687893e+01 0.000000e+00
      vertex   -3.763239e+01 -3.455727e+00 1.079471e+01
    endloop
  endfacet
  facet normal 1.000000e+00 0.000000e+00 0.000000e+00
    outer loop
      vertex   -3.763239e+01 -3.455727e+00 1.079471e+01
      vertex   -3.763239e+01 -2.687893e+01 0.000000e+00
      vertex   -3.763239e+01 2.792107e+01 0.000000e+00
    endloop
  endfacet
  facet normal 1.000000e+00 -0.000000e+00 0.000000e+00
    outer loop
      vertex   -3.763239e+01 -3.455727e+00 1.079471e+01
      vertex   -3.763239e+01 2.792107e+01 0.000000e+00
      vertex   -3.763239e+01 2.792107e+01 2.800000e+01
    endloop
  endfacet
  facet normal 1.000000e+00 0.000000e+00 -0.000000e+00
    outer loop
      vertex   -3.763239e+01 -1.488393e+01 1.722291e+01
      vertex   -3.763239e+01 -3.455727e+00 1.722291e+01
      vertex   -3.763239e+01 -2.687893e+01 2.800000e+01
    endloop
  endfacet
  facet normal 1.000000e+00 -0.000000e+00 0.000000e+00
    outer loop
      vertex   -3.763239e+01 -2.687893e+01 2.800000e+01
      vertex   -3.763239e+01 -3.455727e+00 1.722291e+01
      vertex   -3.763239e+01 2.792107e+01 2.800000e+01
    endloop
  endfacet
  facet normal 1.000000e+00 0.000000e+00 0.000000e+00
    outer loop
      vertex   -3.763239e+01 2.792107e+01 2.800000e+01
      vertex   -3.763239e+01 -3.455727e+00 1.722291e+01
      vertex   -3.763239e+01 -3.455727e+00 1.079471e+01
    endloop
  endfacet
  facet normal 0.000000e+00 -1.000000e+00 -0.000000e+00
    outer loop
      vertex   -2.813239e+01 2.792107e+01 2.000000e+00
      vertex   -3.763239e+01 2.792107e+01 0.000000e+00
      vertex   2.266761e+01 2.792107e+01 2.000000e+00
    endloop
  endfacet
  facet normal 0.000000e+00 -1.000000e+00 -0.000000e+00
    outer loop
      vertex   2.266761e+01 2.792107e+01 2.000000e+00
      vertex   -3.763239e+01 2.792107e+01 0.000000e+00
      vertex   3.240761e+01 2.792107e+01 0.000000e+00
    endloop
  endfacet
  facet normal 0.000000e+00 -1.000000e+00 0.000000e+00
    outer loop
      vertex   2.266761e+01 2.792107e+01 2.000000e+00
      vertex   3.240761e+01 2.792107e+01 0.000000e+00
      vertex   2.266761e+01 2.792107e+01 5.500000e+00
    endloop
  endfacet
  facet normal 0.000000e+00 -1.000000e+00 0.000000e+00
    outer loop
      vertex   2.266761e+01 2.792107e+01 5.500000e+00
      vertex   3.240761e+01 2.792107e+01 0.000000e+00
      vertex   3.240761e+01 2.792107e+01 2.800000e+01
    endloop
  endfacet
  facet normal 0.000000e+00 -1.000000e+00 0.000000e+00
    outer loop
      vertex   2.266761e+01 2.792107e+01 5.500000e+00
      vertex   3.240761e+01 2.792107e+01 2.800000e+01
      vertex   -3.763239e+01 2.792107e+01 2.800000e+01
    endloop
  endfacet
  facet normal -0.000000e+00 -1.000000e+00 0.000000e+00
    outer loop
      vertex   -2.813239e+01 2.792107e+01 2.000000e+00
      vertex   -2.813239e+01 2.792107e+01 5.500000e+00
      vertex   -3.763239e+01 2.792107e+01 0.000000e+00
    endloop
  endfacet
  facet normal 0.000000e+00 -1.000000e+00 0.000000e+00
    outer loop
      vertex   -3.763239e+01 2.792107e+01 0.000000e+00
      vertex   -2.813239e+01 2.792107e+01 5.500000e+00
      vertex   -3.763239e+01 2.792107e+01 2.800000e+01
    endloop
  endfacet
  facet normal 0.000000e+00 -1.000000e+00 0.000000e+00
    outer loop
      vertex   -3.763239e+01 2.792107e+01 2.800000e+01
      vertex   -2.813239e+01 2.792107e+01 5.500000e+00
      vertex   2.266761e+01 2.792107e+01 5.500000e+00
    endloop
  endfacet
  facet normal 0.000000e+00 0.000000e+00 1.000000e+00
    outer loop
      vertex   3.240761e+01 2.792107e+01 0.000000e+00
      vertex   -3.763239e+01 2.792107e+01 0.000000e+00
      vertex   3.240761e+01 -2.687893e+01 0.000000e+00
    endloop
  endfacet
  facet normal 0.000000e+00 0.000000e+00 1.000000e+00
    outer loop
      vertex   3.240761e+01 -2.687893e+01 0.000000e+00
      vertex   -3.763239e+01 2.792107e+01 0.000000e+00
      vertex   -3.763239e+01 -2.687893e+01 0.000000e+00
    endloop
  endfacet
  facet normal 1.000000e+00 0.000000e+00 0.000000e+00
    outer loop
      vertex   3.440761e+01 -2.887893e+01 -2.000000e+00
      vertex   3.440761e+01 2.992107e+01 -2.000000e+00
      vertex   3.440761e+01 -2.887893e+01 2.800000e+01
    endloop
  endfacet
  facet normal 1.000000e+00 -0.000000e+00 0.000000e+00
    outer loop
      vertex   3.440761e+01 -2.887893e+01 2.800000e+01
      vertex   3.440761e+01 2.992107e+01 -2.000000e+00
      vertex   3.440761e+01 2.992107e+01 2.800000e+01
    endloop
  endfacet
  facet normal -7.867296e-16 -1.000000e+00 3.726700e-31
    outer loop
      vertex   -2.156919e+01 -2.887893e+01 1.775900e+01
      vertex   -3.963239e+01 -2.887893e+01 2.800000e+01
      vertex   -2.156919e+01 -2.887893e+01 1.025900e+01
    endloop
  endfacet
  facet normal -1.579760e-15 -1.000000e+00 -8.074329e-16
    outer loop
      vertex   -2.156919e+01 -2.887893e+01 1.025900e+01
      vertex   -3.963239e+01 -2.887893e+01 2.800000e+01
      vertex   -2.813239e+01 -2.887893e+01 5.500000e+00
    endloop
  endfacet
  facet normal 2.557954e-15 -1.000000e+00 -6.513806e-15
    outer loop
      vertex   -2.156919e+01 -2.887893e+01 1.025900e+01
      vertex   -2.813239e+01 -2.887893e+01 5.500000e+00
      vertex   -9.069188e+00 -2.887893e+01 1.025900e+01
    endloop
  endfacet
  facet normal 0.000000e+00 -1.000000e+00 3.732625e-15
    outer loop
      vertex   -9.069188e+00 -2.887893e+01 1.025900e+01
      vertex   -2.813239e+01 -2.887893e+01 5.500000e+00
      vertex   2.266761e+01 -2.887893e+01 5.500000e+00
    endloop
  endfacet
  facet normal -1.199000e-15 -1.000000e+00 -4.263256e-15
    outer loop
      vertex   -9.069188e+00 -2.887893e+01 1.025900e+01
      vertex   2.266761e+01 -2.887893e+01 5.500000e+00
      vertex   -9.069188e+00 -2.887893e+01 1.775900e+01
    endloop
  endfacet
  facet normal 3.726628e-16 -1.000000e+00 -1.944472e-16
    outer loop
      vertex   -9.069188e+00 -2.887893e+01 1.775900e+01
      vertex   2.266761e+01 -2.887893e+01 5.500000e+00
      vertex   3.440761e+01 -2.887893e+01 2.800000e+01
    endloop
  endfacet
  facet normal 0.000000e+00 -1.000000e+00 1.387644e-15
    outer loop
      vertex   -9.069188e+00 -2.887893e+01 1.775900e+01
      vertex   3.440761e+01 -2.887893e+01 2.800000e+01
      vertex   -3.963239e+01 -2.887893e+01 2.800000e+01
    endloop
  endfacet
  facet normal 0.000000e+00 -1.000000e+00 1.387644e-15
    outer loop
      vertex   -2.156919e+01 -2.887893e+01 1.775900e+01
      vertex   -9.069188e+00 -2.887893e+01 1.775900e+01
      vertex   -3.963239e+01 -2.887893e+01 2.800000e+01
    endloop
  endfacet
  facet normal 0.000000e+00 -1.000000e+00 -0.000000e+00
    outer loop
      vertex   -2.813239e+01 -2.887893e+01 2.000000e+00
      vertex   -3.963239e+01 -2.887893e+01 -2.000000e+00
      vertex   2.266761e+01 -2.887893e+01 2.000000e+00
    endloop
  endfacet
  facet normal 0.000000e+00 -1.000000e+00 -0.000000e+00
    outer loop
      vertex   2.266761e+01 -2.887893e+01 2.000000e+00
      vertex   -3.963239e+01 -2.887893e+01 -2.000000e+00
      vertex   3.440761e+01 -2.887893e+01 -2.000000e+00
    endloop
  endfacet
  facet normal 0.000000e+00 -1.000000e+00 0.000000e+00
    outer loop
      vertex   2.266761e+01 -2.887893e+01 2.000000e+00
      vertex   3.440761e+01 -2.887893e+01 -2.000000e+00
      vertex   2.266761e+01 -2.887893e+01 5.500000e+00
    endloop
  endfacet
  facet normal 0.000000e+00 -1.000000e+00 0.000000e+00
    outer loop
      vertex   2.266761e+01 -2.887893e+01 5.500000e+00
      vertex   3.440761e+01 -2.887893e+01 -2.000000e+00
      vertex   3.440761e+01 -2.887893e+01 2.800000e+01
    endloop
  endfacet
  facet normal -0.000000e+00 -1.000000e+00 0.000000e+00
    outer loop
      vertex   -2.813239e+01 -2.887893e+01 2.000000e+00
      vertex   -2.813239e+01 -2.887893e+01 5.500000e+00
      vertex   -3.963239e+01 -2.887893e+01 -2.000000e+00
    endloop
  endfacet
  facet normal 0.000000e+00 -1.000000e+00 0.000000e+00
    outer loop
      vertex   -3.963239e+01 -2.887893e+01 -2.000000e+00
      vertex   -2.813239e+01 -2.887893e+01 5.500000e+00
      vertex   -3.963239e+01 -2.887893e+01 2.800000e+01
    endloop
  endfacet
  facet normal -1.000000e+00 1.705303e-15 2.934940e-15
    outer loop
      vertex   -3.963239e+01 -2.919829e+00 1.775881e+01
      vertex   -3.963239e+01 -1.541983e+01 1.775881e+01
      vertex   -3.963239e+01 -2.887893e+01 2.800000e+01
    endloop
  endfacet
  facet normal -1.000000e+00 -5.279271e-16 0.000000e+00
    outer loop
      vertex   -3.963239e+01 -2.887893e+01 2.800000e+01
      vertex   -3.963239e+01 -1.541983e+01 1.775881e+01
      vertex   -3.963239e+01 -1.541983e+01 1.025881e+01
    endloop
  endfacet
  facet normal -1.000000e+00 -5.279271e-16 -0.000000e+00
    outer loop
      vertex   -3.963239e+01 -2.887893e+01 2.800000e+01
      vertex   -3.963239e+01 -1.541983e+01 1.025881e+01
      vertex   -3.963239e+01 -2.887893e+01 -2.000000e+00
    endloop
  endfacet
  facet normal -1.000000e+00 1.647374e-31 -5.796181e-16
    outer loop
      vertex   -3.963239e+01 -2.887893e+01 -2.000000e+00
      vertex   -3.963239e+01 -1.541983e+01 1.025881e+01
      vertex   -3.963239e+01 -2.919829e+00 1.025881e+01
    endloop
  endfacet
  facet normal -1.000000e+00 0.000000e+00 -5.796181e-16
    outer loop
      vertex   -3.963239e+01 -2.887893e+01 -2.000000e+00
      vertex   -3.963239e+01 -2.919829e+00 1.025881e+01
      vertex   -3.963239e+01 2.992107e+01 -2.000000e+00
    endloop
  endfacet
  facet normal -1.000000e+00 2.163591e-16 0.000000e+00
    outer loop
      vertex   -3.963239e+01 2.992107e+01 -2.000000e+00
      vertex   -3.963239e+01 -2.919829e+00 1.025881e+01
      vertex   -3.963239e+01 2.992107e+01 2.800000e+01
    endloop
  endfacet
  facet normal -1.000000e+00 -1.319028e-15 2.842171e-15
    outer loop
      vertex   -3.963239e+01 2.992107e+01 2.800000e+01
      vertex   -3.963239e+01 -2.919829e+00 1.025881e+01
      vertex   -3.963239e+01 -2.919829e+00 1.775881e+01
    endloop
  endfacet
  facet normal -1.000000e+00 -0.000000e+00 -1.387617e-15
    outer loop
      vertex   -3.963239e+01 2.992107e+01 2.800000e+01
      vertex   -3.963239e+01 -2.919829e+00 1.775881e+01
      vertex   -3.963239e+01 -2.887893e+01 2.800000e+01
    endloop
  endfacet
  facet normal -6.178632e-16 1.000000e+00 0.000000e+00
    outer loop
      vertex   -2.813239e+01 2.992107e+01 5.500000e+00
      vertex   -2.813239e+01 2.992107e+01 2.000000e+00
      vertex   -3.963239e+01 2.992107e+01 -2.000000e+00
    endloop
  endfacet
  facet normal 0.000000e+00 1.000000e+00 -1.776357e-15
    outer loop
      vertex   -3.963239e+01 2.992107e+01 -2.000000e+00
      vertex   -2.813239e+01 2.992107e+01 2.000000e+00
      vertex   2.266761e+01 2.992107e+01 2.000000e+00
    endloop
  endfacet
  facet normal 0.000000e+00 1.000000e+00 -1.776357e-15
    outer loop
      vertex   -3.963239e+01 2.992107e+01 -2.000000e+00
      vertex   2.266761e+01 2.992107e+01 2.000000e+00
      vertex   3.440761e+01 2.992107e+01 -2.000000e+00
    endloop
  endfacet
  facet normal 6.052323e-16 1.000000e+00 0.000000e+00
    outer loop
      vertex   3.440761e+01 2.992107e+01 -2.000000e+00
      vertex   2.266761e+01 2.992107e+01 2.000000e+00
      vertex   2.266761e+01 2.992107e+01 5.500000e+00
    endloop
  endfacet
  facet normal 6.052323e-16 1.000000e+00 -0.000000e+00
    outer loop
      vertex   3.440761e+01 2.992107e+01 -2.000000e+00
      vertex   2.266761e+01 2.992107e+01 5.500000e+00
      vertex   3.440761e+01 2.992107e+01 2.800000e+01
    endloop
  endfacet
  facet normal 0.000000e+00 1.000000e+00 3.157968e-16
    outer loop
      vertex   3.440761e+01 2.992107e+01 2.800000e+01
      vertex   2.266761e+01 2.992107e+01 5.500000e+00
      vertex   -3.963239e+01 2.992107e+01 2.800000e+01
    endloop
  endfacet
  facet normal 0.000000e+00 1.000000e+00 3.157968e-16
    outer loop
      vertex   -3.963239e+01 2.992107e+01 2.800000e+01
      vertex   2.266761e+01 2.992107e+01 5.500000e+00
      vertex   -2.813239e+01 2.992107e+01 5.500000e+00
    endloop
  endfacet
  facet normal -6.178632e-16 1.000000e+00 0.000000e+00
    outer loop
      vertex   -3.963239e+01 2.992107e+01 2.800000e+01
      vertex   -2.813239e+01 2.992107e+01 5.500000e+00
      vertex   -3.963239e+01 2.992107e+01 -2.000000e+00
    endloop
  endfacet
  facet normal 1.776357e-15 -0.000000e+00 1.000000e+00
    outer loop
      vertex   3.240761e+01 -2.687893e+01 2.800000e+01
      vertex   3.440761e+01 -2.887893e+01 2.800000e+01
      vertex   3.240761e+01 2.792107e+01 2.800000e+01
    endloop
  endfacet
  facet normal 1.776357e-15 0.000000e+00 1.000000e+00
    outer loop
      vertex   3.240761e+01 2.792107e+01 2.800000e+01
      vertex   3.440761e+01 -2.887893e+01 2.800000e+01
      vertex   3.440761e+01 2.992107e+01 2.800000e+01
    endloop
  endfacet
  facet normal 0.000000e+00 1.776357e-15 1.000000e+00
    outer loop
      vertex   3.240761e+01 2.792107e+01 2.800000e+01
      vertex   3.440761e+01 2.992107e+01 2.800000e+01
      vertex   -3.963239e+01 2.992107e+01 2.800000e+01
    endloop
  endfacet
  facet normal 0.000000e+00 -1.776357e-15 1.000000e+00
    outer loop
      vertex   3.240761e+01 -2.687893e+01 2.800000e+01
      vertex   -3.763239e+01 -2.687893e+01 2.800000e+01
      vertex   3.440761e+01 -2.887893e+01 2.800000e+01
    endloop
  endfacet
  facet normal 0.000000e+00 -1.776357e-15 1.000000e+00
    outer loop
      vertex   3.440761e+01 -2.887893e+01 2.800000e+01
      vertex   -3.763239e+01 -2.687893e+01 2.800000e+01
      vertex   -3.963239e+01 -2.887893e+01 2.800000e+01
    endloop
  endfacet
  facet normal -1.776357e-15 0.000000e+00 1.000000e+00
    outer loop
      vertex   -3.963239e+01 -2.887893e+01 2.800000e+01
      vertex   -3.763239e+01 -2.687893e+01 2.800000e+01
      vertex   -3.763239e+01 2.792107e+01 2.800000e+01
    endloop
  endfacet
  facet normal -1.776357e-15 0.000000e+00 1.000000e+00
    outer loop
      vertex   -3.963239e+01 -2.887893e+01 2.800000e+01
      vertex   -3.763239e+01 2.792107e+01 2.800000e+01
      vertex   -3.963239e+01 2.992107e+01 2.800000e+01
    endloop
  endfacet
  facet normal 0.000000e+00 1.776357e-15 1.000000e+00
    outer loop
      vertex   -3.963239e+01 2.992107e+01 2.800000e+01
      vertex   -3.763239e+01 2.792107e+01 2.800000e+01
      vertex   3.240761e+01 2.792107e+01 2.800000e+01
    endloop
  endfacet
  facet normal 0.000000e+00 0.000000e+00 -1.000000e+00
    outer loop
      vertex   -3.963239e+01 2.992107e+01 -2.000000e+00
      vertex   3.440761e+01 2.992107e+01 -2.000000e+00
      vertex   -3.963239e+01 -2.887893e+01 -2.000000e+00
    endloop
  endfacet
  facet normal 0.000000e+00 0.000000e+00 -1.000000e+00
    outer loop
      vertex   -3.963239e+01 -2.887893e+01 -2.000000e+00
      vertex   3.440761e+01 2.992107e+01 -2.000000e+00
      vertex   3.440761e+01 -2.887893e+01 -2.000000e+00
    endloop
  endfacet
endsolid
