solid ASCII
  facet normal 1.000000e+00 4.768743e-15 -0.000000e+00
    outer loop
      vertex   1.537250e+01 2.000000e+00 -3.000000e+01
      vertex   1.537250e+01 2.000000e+00 -3.000000e+00
      vertex   1.537250e+01 1.627500e+00 -3.000000e+01
    endloop
  endfacet
  facet normal 1.000000e+00 4.768743e-15 -0.000000e+00
    outer loop
      vertex   1.537250e+01 1.627500e+00 -3.000000e+01
      vertex   1.537250e+01 2.000000e+00 -3.000000e+00
      vertex   1.537250e+01 1.627500e+00 -3.000000e+00
    endloop
  endfacet
  facet normal 1.769280e-15 -5.960929e-15 -1.000000e+00
    outer loop
      vertex   1.537250e+01 2.000000e+00 -3.000000e+00
      vertex   1.662750e+01 2.000000e+00 -3.000000e+00
      vertex   1.537250e+01 1.627500e+00 -3.000000e+00
    endloop
  endfacet
  facet normal 0.000000e+00 0.000000e+00 -1.000000e+00
    outer loop
      vertex   1.537250e+01 1.627500e+00 -3.000000e+00
      vertex   1.662750e+01 2.000000e+00 -3.000000e+00
      vertex   1.662750e+01 1.627500e+00 -3.000000e+00
    endloop
  endfacet
  facet normal -1.000000e+00 -9.537486e-15 -0.000000e+00
    outer loop
      vertex   1.662750e+01 2.000000e+00 -3.000000e+00
      vertex   1.662750e+01 2.000000e+00 -3.000000e+01
      vertex   1.662750e+01 1.627500e+00 -3.000000e+00
    endloop
  endfacet
  facet normal -1.000000e+00 -9.537486e-15 -0.000000e+00
    outer loop
      vertex   1.662750e+01 1.627500e+00 -3.000000e+00
      vertex   1.662750e+01 2.000000e+00 -3.000000e+01
      vertex   1.662750e+01 1.627500e+00 -3.000000e+01
    endloop
  endfacet
  facet normal -7.077119e-16 1.000000e+00 0.000000e+00
    outer loop
      vertex   1.537250e+01 1.627500e+00 -3.000000e+01
      vertex   1.537250e+01 1.627500e+00 -3.000000e+00
      vertex   1.662750e+01 1.627500e+00 -3.000000e+01
    endloop
  endfacet
  facet normal -7.077119e-16 1.000000e+00 0.000000e+00
    outer loop
      vertex   1.662750e+01 1.627500e+00 -3.000000e+01
      vertex   1.537250e+01 1.627500e+00 -3.000000e+00
      vertex   1.662750e+01 1.627500e+00 -3.000000e+00
    endloop
  endfacet
  facet normal 0.000000e+00 0.000000e+00 -1.000000e+00
    outer loop
      vertex   1.537250e+01 1.627500e+00 -3.000000e+01
      vertex   1.662750e+01 1.627500e+00 -3.000000e+01
      vertex   1.537250e+01 3.725000e-01 -3.000000e+01
    endloop
  endfacet
  facet normal 0.000000e+00 0.000000e+00 -1.000000e+00
    outer loop
      vertex   1.537250e+01 3.725000e-01 -3.000000e+01
      vertex   1.662750e+01 1.627500e+00 -3.000000e+01
      vertex   1.662750e+01 3.725000e-01 -3.000000e+01
    endloop
  endfacet
  facet normal 0.000000e+00 0.000000e+00 -1.000000e+00
    outer loop
      vertex   1.662750e+01 2.000000e+00 -3.000000e+01
      vertex   1.700000e+01 2.000000e+00 -3.000000e+01
      vertex   1.662750e+01 1.627500e+00 -3.000000e+01
    endloop
  endfacet
  facet normal 0.000000e+00 0.000000e+00 -1.000000e+00
    outer loop
      vertex   1.662750e+01 1.627500e+00 -3.000000e+01
      vertex   1.700000e+01 2.000000e+00 -3.000000e+01
      vertex   1.700000e+01 1.627500e+00 -3.000000e+01
    endloop
  endfacet
  facet normal 0.000000e+00 0.000000e+00 -1.000000e+00
    outer loop
      vertex   1.537250e+01 1.627500e+00 -3.000000e+01
      vertex   1.500000e+01 1.627500e+00 -3.000000e+01
      vertex   1.537250e+01 2.000000e+00 -3.000000e+01
    endloop
  endfacet
  facet normal -0.000000e+00 0.000000e+00 -1.000000e+00
    outer loop
      vertex   1.537250e+01 2.000000e+00 -3.000000e+01
      vertex   1.500000e+01 1.627500e+00 -3.000000e+01
      vertex   1.500000e+01 2.000000e+00 -3.000000e+01
    endloop
  endfacet
  facet normal 0.000000e+00 -1.000000e+00 0.000000e+00
    outer loop
      vertex   1.700000e+01 1.627500e+00 -3.000000e+01
      vertex   1.700000e+01 1.627500e+00 -3.000000e+00
      vertex   1.662750e+01 1.627500e+00 -3.000000e+01
    endloop
  endfacet
  facet normal 0.000000e+00 -1.000000e+00 0.000000e+00
    outer loop
      vertex   1.662750e+01 1.627500e+00 -3.000000e+01
      vertex   1.700000e+01 1.627500e+00 -3.000000e+00
      vertex   1.662750e+01 1.627500e+00 -3.000000e+00
    endloop
  endfacet
  facet normal -5.960929e-15 -1.769280e-15 -1.000000e+00
    outer loop
      vertex   1.700000e+01 1.627500e+00 -3.000000e+00
      vertex   1.700000e+01 3.725000e-01 -3.000000e+00
      vertex   1.662750e+01 1.627500e+00 -3.000000e+00
    endloop
  endfacet
  facet normal 0.000000e+00 0.000000e+00 -1.000000e+00
    outer loop
      vertex   1.662750e+01 1.627500e+00 -3.000000e+00
      vertex   1.700000e+01 3.725000e-01 -3.000000e+00
      vertex   1.662750e+01 3.725000e-01 -3.000000e+00
    endloop
  endfacet
  facet normal -2.235348e-15 1.000000e+00 0.000000e+00
    outer loop
      vertex   1.700000e+01 3.725000e-01 -3.000000e+00
      vertex   1.700000e+01 3.725000e-01 -3.000000e+01
      vertex   1.662750e+01 3.725000e-01 -3.000000e+00
    endloop
  endfacet
  facet normal -2.235348e-15 1.000000e+00 0.000000e+00
    outer loop
      vertex   1.662750e+01 3.725000e-01 -3.000000e+00
      vertex   1.700000e+01 3.725000e-01 -3.000000e+01
      vertex   1.662750e+01 3.725000e-01 -3.000000e+01
    endloop
  endfacet
  facet normal 1.000000e+00 0.000000e+00 -0.000000e+00
    outer loop
      vertex   1.662750e+01 1.627500e+00 -3.000000e+01
      vertex   1.662750e+01 1.627500e+00 -3.000000e+00
      vertex   1.662750e+01 3.725000e-01 -3.000000e+01
    endloop
  endfacet
  facet normal 1.000000e+00 0.000000e+00 0.000000e+00
    outer loop
      vertex   1.662750e+01 3.725000e-01 -3.000000e+01
      vertex   1.662750e+01 1.627500e+00 -3.000000e+00
      vertex   1.662750e+01 3.725000e-01 -3.000000e+00
    endloop
  endfacet
  facet normal 0.000000e+00 0.000000e+00 -1.000000e+00
    outer loop
      vertex   1.662750e+01 3.725000e-01 -3.000000e+01
      vertex   1.700000e+01 3.725000e-01 -3.000000e+01
      vertex   1.662750e+01 0.000000e+00 -3.000000e+01
    endloop
  endfacet
  facet normal 0.000000e+00 0.000000e+00 -1.000000e+00
    outer loop
      vertex   1.662750e+01 0.000000e+00 -3.000000e+01
      vertex   1.700000e+01 3.725000e-01 -3.000000e+01
      vertex   1.700000e+01 0.000000e+00 -3.000000e+01
    endloop
  endfacet
  facet normal -1.000000e+00 0.000000e+00 0.000000e+00
    outer loop
      vertex   1.662750e+01 0.000000e+00 -3.000000e+01
      vertex   1.662750e+01 0.000000e+00 -3.000000e+00
      vertex   1.662750e+01 3.725000e-01 -3.000000e+01
    endloop
  endfacet
  facet normal -1.000000e+00 0.000000e+00 0.000000e+00
    outer loop
      vertex   1.662750e+01 3.725000e-01 -3.000000e+01
      vertex   1.662750e+01 0.000000e+00 -3.000000e+00
      vertex   1.662750e+01 3.725000e-01 -3.000000e+00
    endloop
  endfacet
  facet normal -1.769280e-15 5.960929e-15 -1.000000e+00
    outer loop
      vertex   1.662750e+01 0.000000e+00 -3.000000e+00
      vertex   1.537250e+01 0.000000e+00 -3.000000e+00
      vertex   1.662750e+01 3.725000e-01 -3.000000e+00
    endloop
  endfacet
  facet normal -0.000000e+00 0.000000e+00 -1.000000e+00
    outer loop
      vertex   1.662750e+01 3.725000e-01 -3.000000e+00
      vertex   1.537250e+01 0.000000e+00 -3.000000e+00
      vertex   1.537250e+01 3.725000e-01 -3.000000e+00
    endloop
  endfacet
  facet normal 1.000000e+00 4.768743e-15 0.000000e+00
    outer loop
      vertex   1.537250e+01 0.000000e+00 -3.000000e+00
      vertex   1.537250e+01 0.000000e+00 -3.000000e+01
      vertex   1.537250e+01 3.725000e-01 -3.000000e+00
    endloop
  endfacet
  facet normal 1.000000e+00 4.768743e-15 0.000000e+00
    outer loop
      vertex   1.537250e+01 3.725000e-01 -3.000000e+00
      vertex   1.537250e+01 0.000000e+00 -3.000000e+01
      vertex   1.537250e+01 3.725000e-01 -3.000000e+01
    endloop
  endfacet
  facet normal 0.000000e+00 -1.000000e+00 0.000000e+00
    outer loop
      vertex   1.662750e+01 3.725000e-01 -3.000000e+01
      vertex   1.662750e+01 3.725000e-01 -3.000000e+00
      vertex   1.537250e+01 3.725000e-01 -3.000000e+01
    endloop
  endfacet
  facet normal 0.000000e+00 -1.000000e+00 0.000000e+00
    outer loop
      vertex   1.537250e+01 3.725000e-01 -3.000000e+01
      vertex   1.662750e+01 3.725000e-01 -3.000000e+00
      vertex   1.537250e+01 3.725000e-01 -3.000000e+00
    endloop
  endfacet
  facet normal 0.000000e+00 0.000000e+00 -1.000000e+00
    outer loop
      vertex   1.537250e+01 0.000000e+00 -3.000000e+01
      vertex   1.500000e+01 0.000000e+00 -3.000000e+01
      vertex   1.537250e+01 3.725000e-01 -3.000000e+01
    endloop
  endfacet
  facet normal -0.000000e+00 0.000000e+00 -1.000000e+00
    outer loop
      vertex   1.537250e+01 3.725000e-01 -3.000000e+01
      vertex   1.500000e+01 0.000000e+00 -3.000000e+01
      vertex   1.500000e+01 3.725000e-01 -3.000000e+01
    endloop
  endfacet
  facet normal 0.000000e+00 1.000000e+00 0.000000e+00
    outer loop
      vertex   1.500000e+01 3.725000e-01 -3.000000e+01
      vertex   1.500000e+01 3.725000e-01 -3.000000e+00
      vertex   1.537250e+01 3.725000e-01 -3.000000e+01
    endloop
  endfacet
  facet normal 0.000000e+00 1.000000e+00 -0.000000e+00
    outer loop
      vertex   1.537250e+01 3.725000e-01 -3.000000e+01
      vertex   1.500000e+01 3.725000e-01 -3.000000e+00
      vertex   1.537250e+01 3.725000e-01 -3.000000e+00
    endloop
  endfacet
  facet normal 5.960929e-15 1.769280e-15 -1.000000e+00
    outer loop
      vertex   1.500000e+01 3.725000e-01 -3.000000e+00
      vertex   1.500000e+01 1.627500e+00 -3.000000e+00
      vertex   1.537250e+01 3.725000e-01 -3.000000e+00
    endloop
  endfacet
  facet normal 0.000000e+00 0.000000e+00 -1.000000e+00
    outer loop
      vertex   1.537250e+01 3.725000e-01 -3.000000e+00
      vertex   1.500000e+01 1.627500e+00 -3.000000e+00
      vertex   1.537250e+01 1.627500e+00 -3.000000e+00
    endloop
  endfacet
  facet normal 0.000000e+00 -1.000000e+00 0.000000e+00
    outer loop
      vertex   1.500000e+01 1.627500e+00 -3.000000e+00
      vertex   1.500000e+01 1.627500e+00 -3.000000e+01
      vertex   1.537250e+01 1.627500e+00 -3.000000e+00
    endloop
  endfacet
  facet normal 0.000000e+00 -1.000000e+00 -0.000000e+00
    outer loop
      vertex   1.537250e+01 1.627500e+00 -3.000000e+00
      vertex   1.500000e+01 1.627500e+00 -3.000000e+01
      vertex   1.537250e+01 1.627500e+00 -3.000000e+01
    endloop
  endfacet
  facet normal -1.000000e+00 0.000000e+00 0.000000e+00
    outer loop
      vertex   1.537250e+01 3.725000e-01 -3.000000e+01
      vertex   1.537250e+01 3.725000e-01 -3.000000e+00
      vertex   1.537250e+01 1.627500e+00 -3.000000e+01
    endloop
  endfacet
  facet normal -1.000000e+00 0.000000e+00 0.000000e+00
    outer loop
      vertex   1.537250e+01 1.627500e+00 -3.000000e+01
      vertex   1.537250e+01 3.725000e-01 -3.000000e+00
      vertex   1.537250e+01 1.627500e+00 -3.000000e+00
    endloop
  endfacet
  facet normal -1.000000e+00 0.000000e+00 0.000000e+00
    outer loop
      vertex   1.500000e+01 1.627500e+00 -3.000000e+01
      vertex   1.500000e+01 1.627500e+00 -3.000000e+00
      vertex   1.500000e+01 2.000000e+00 -3.000000e+01
    endloop
  endfacet
  facet normal -1.000000e+00 0.000000e+00 0.000000e+00
    outer loop
      vertex   1.500000e+01 2.000000e+00 -3.000000e+01
      vertex   1.500000e+01 1.627500e+00 -3.000000e+00
      vertex   1.500000e+01 2.000000e+00 0.000000e+00
    endloop
  endfacet
  facet normal -1.000000e+00 0.000000e+00 0.000000e+00
    outer loop
      vertex   1.500000e+01 2.000000e+00 0.000000e+00
      vertex   1.500000e+01 1.627500e+00 -3.000000e+00
      vertex   1.500000e+01 3.725000e-01 -3.000000e+00
    endloop
  endfacet
  facet normal -1.000000e+00 -0.000000e+00 0.000000e+00
    outer loop
      vertex   1.500000e+01 2.000000e+00 0.000000e+00
      vertex   1.500000e+01 3.725000e-01 -3.000000e+00
      vertex   1.500000e+01 0.000000e+00 0.000000e+00
    endloop
  endfacet
  facet normal -1.000000e+00 0.000000e+00 0.000000e+00
    outer loop
      vertex   1.500000e+01 0.000000e+00 0.000000e+00
      vertex   1.500000e+01 3.725000e-01 -3.000000e+00
      vertex   1.500000e+01 0.000000e+00 -3.000000e+01
    endloop
  endfacet
  facet normal -1.000000e+00 0.000000e+00 0.000000e+00
    outer loop
      vertex   1.500000e+01 0.000000e+00 -3.000000e+01
      vertex   1.500000e+01 3.725000e-01 -3.000000e+00
      vertex   1.500000e+01 3.725000e-01 -3.000000e+01
    endloop
  endfacet
  facet normal 0.000000e+00 -1.000000e+00 0.000000e+00
    outer loop
      vertex   1.662750e+01 0.000000e+00 -3.000000e+01
      vertex   1.700000e+01 0.000000e+00 -3.000000e+01
      vertex   1.662750e+01 0.000000e+00 -3.000000e+00
    endloop
  endfacet
  facet normal 0.000000e+00 -1.000000e+00 0.000000e+00
    outer loop
      vertex   1.662750e+01 0.000000e+00 -3.000000e+00
      vertex   1.700000e+01 0.000000e+00 -3.000000e+01
      vertex   1.700000e+01 0.000000e+00 0.000000e+00
    endloop
  endfacet
  facet normal 0.000000e+00 -1.000000e+00 0.000000e+00
    outer loop
      vertex   1.662750e+01 0.000000e+00 -3.000000e+00
      vertex   1.700000e+01 0.000000e+00 0.000000e+00
      vertex   1.500000e+01 0.000000e+00 0.000000e+00
    endloop
  endfacet
  facet normal 0.000000e+00 -1.000000e+00 0.000000e+00
    outer loop
      vertex   1.662750e+01 0.000000e+00 -3.000000e+00
      vertex   1.500000e+01 0.000000e+00 0.000000e+00
      vertex   1.537250e+01 0.000000e+00 -3.000000e+00
    endloop
  endfacet
  facet normal -0.000000e+00 -1.000000e+00 0.000000e+00
    outer loop
      vertex   1.537250e+01 0.000000e+00 -3.000000e+00
      vertex   1.500000e+01 0.000000e+00 0.000000e+00
      vertex   1.500000e+01 0.000000e+00 -3.000000e+01
    endloop
  endfacet
  facet normal 0.000000e+00 -1.000000e+00 -0.000000e+00
    outer loop
      vertex   1.537250e+01 0.000000e+00 -3.000000e+00
      vertex   1.500000e+01 0.000000e+00 -3.000000e+01
      vertex   1.537250e+01 0.000000e+00 -3.000000e+01
    endloop
  endfacet
  facet normal 1.000000e+00 0.000000e+00 0.000000e+00
    outer loop
      vertex   1.700000e+01 1.627500e+00 -3.000000e+01
      vertex   1.700000e+01 2.000000e+00 -3.000000e+01
      vertex   1.700000e+01 1.627500e+00 -3.000000e+00
    endloop
  endfacet
  facet normal 1.000000e+00 -0.000000e+00 0.000000e+00
    outer loop
      vertex   1.700000e+01 1.627500e+00 -3.000000e+00
      vertex   1.700000e+01 2.000000e+00 -3.000000e+01
      vertex   1.700000e+01 2.000000e+00 0.000000e+00
    endloop
  endfacet
  facet normal 1.000000e+00 0.000000e+00 -0.000000e+00
    outer loop
      vertex   1.700000e+01 1.627500e+00 -3.000000e+00
      vertex   1.700000e+01 2.000000e+00 0.000000e+00
      vertex   1.700000e+01 0.000000e+00 0.000000e+00
    endloop
  endfacet
  facet normal 1.000000e+00 0.000000e+00 0.000000e+00
    outer loop
      vertex   1.700000e+01 1.627500e+00 -3.000000e+00
      vertex   1.700000e+01 0.000000e+00 0.000000e+00
      vertex   1.700000e+01 3.725000e-01 -3.000000e+00
    endloop
  endfacet
  facet normal 1.000000e+00 0.000000e+00 0.000000e+00
    outer loop
      vertex   1.700000e+01 3.725000e-01 -3.000000e+00
      vertex   1.700000e+01 0.000000e+00 0.000000e+00
      vertex   1.700000e+01 0.000000e+00 -3.000000e+01
    endloop
  endfacet
  facet normal 1.000000e+00 0.000000e+00 0.000000e+00
    outer loop
      vertex   1.700000e+01 3.725000e-01 -3.000000e+00
      vertex   1.700000e+01 0.000000e+00 -3.000000e+01
      vertex   1.700000e+01 3.725000e-01 -3.000000e+01
    endloop
  endfacet
  facet normal 1.192186e-15 1.000000e+00 -0.000000e+00
    outer loop
      vertex   1.537250e+01 2.000000e+00 -3.000000e+01
      vertex   1.500000e+01 2.000000e+00 -3.000000e+01
      vertex   1.537250e+01 2.000000e+00 -3.000000e+00
    endloop
  endfacet
  facet normal 1.192186e-15 1.000000e+00 0.000000e+00
    outer loop
      vertex   1.537250e+01 2.000000e+00 -3.000000e+00
      vertex   1.500000e+01 2.000000e+00 -3.000000e+01
      vertex   1.500000e+01 2.000000e+00 0.000000e+00
    endloop
  endfacet
  facet normal 0.000000e+00 1.000000e+00 -1.480297e-16
    outer loop
      vertex   1.537250e+01 2.000000e+00 -3.000000e+00
      vertex   1.500000e+01 2.000000e+00 0.000000e+00
      vertex   1.700000e+01 2.000000e+00 0.000000e+00
    endloop
  endfacet
  facet normal 2.619060e-31 1.000000e+00 -1.480297e-16
    outer loop
      vertex   1.537250e+01 2.000000e+00 -3.000000e+00
      vertex   1.700000e+01 2.000000e+00 0.000000e+00
      vertex   1.662750e+01 2.000000e+00 -3.000000e+00
    endloop
  endfacet
  facet normal -1.192186e-15 1.000000e+00 0.000000e+00
    outer loop
      vertex   1.662750e+01 2.000000e+00 -3.000000e+00
      vertex   1.700000e+01 2.000000e+00 0.000000e+00
      vertex   1.700000e+01 2.000000e+00 -3.000000e+01
    endloop
  endfacet
  facet normal -1.192186e-15 1.000000e+00 0.000000e+00
    outer loop
      vertex   1.662750e+01 2.000000e+00 -3.000000e+00
      vertex   1.700000e+01 2.000000e+00 -3.000000e+01
      vertex   1.662750e+01 2.000000e+00 -3.000000e+01
    endloop
  endfacet
  facet normal 0.000000e+00 0.000000e+00 1.000000e+00
    outer loop
      vertex   1.500000e+01 0.000000e+00 0.000000e+00
      vertex   1.700000e+01 0.000000e+00 0.000000e+00
      vertex   1.500000e+01 2.000000e+00 0.000000e+00
    endloop
  endfacet
  facet normal -0.000000e+00 0.000000e+00 1.000000e+00
    outer loop
      vertex   1.500000e+01 2.000000e+00 0.000000e+00
      vertex   1.700000e+01 0.000000e+00 0.000000e+00
      vertex   1.700000e+01 2.000000e+00 0.000000e+00
    endloop
  endfacet
endsolid
