<svg width="787" height="787" viewBox="0 0 787 787" fill="none" xmlns="http://www.w3.org/2000/svg">
<path d="M3.89513 3.89513H350.353" stroke="black" stroke-width="6" stroke-linecap="square"/>
<path d="M436.967 3.89513H783.425" stroke="black" stroke-width="6" stroke-linecap="square"/>
<path d="M90.5096 90.5096H263.738" stroke="black" stroke-width="6" stroke-linecap="square"/>
<path d="M436.967 90.5096H783.425" stroke="black" stroke-width="6" stroke-linecap="square"/>
<path d="M436.967 177.124H610.196" stroke="black" stroke-width="6" stroke-linecap="square"/>
<path d="M177.124 263.738H350.353" stroke="black" stroke-width="6" stroke-linecap="square"/>
<path d="M436.967 263.738H523.582" stroke="black" stroke-width="6" stroke-linecap="square"/>
<path d="M696.811 263.738H783.425" stroke="black" stroke-width="6" stroke-linecap="square"/>
<path d="M90.5096 350.353H177.124" stroke="black" stroke-width="6" stroke-linecap="square"/>
<path d="M263.738 350.353H436.967" stroke="black" stroke-width="6" stroke-linecap="square"/>
<path d="M523.582 350.353H696.811" stroke="black" stroke-width="6" stroke-linecap="square"/>
<path d="M350.353 436.967H523.582" stroke="black" stroke-width="6" stroke-linecap="square"/>
<path d="M610.196 436.967H783.425" stroke="black" stroke-width="6" stroke-linecap="square"/>
<path d="M3.89513 523.582H696.811" stroke="black" stroke-width="6" stroke-linecap="square"/>
<path d="M90.5096 610.196H436.967" stroke="black" stroke-width="6" stroke-linecap="square"/>
<path d="M696.811 610.196H783.425" stroke="black" stroke-width="6" stroke-linecap="square"/>
<path d="M90.5096 696.811H177.124" stroke="black" stroke-width="6" stroke-linecap="square"/>
<path d="M263.738 696.811H436.967" stroke="black" stroke-width="6" stroke-linecap="square"/>
<path d="M523.582 696.811H610.196" stroke="black" stroke-width="6" stroke-linecap="square"/>
<path d="M3.89513 783.425H350.353" stroke="black" stroke-width="6" stroke-linecap="square"/>
<path d="M436.967 783.425H783.425" stroke="black" stroke-width="6" stroke-linecap="square"/>
<path d="M3.89513 3.89513V783.425" stroke="black" stroke-width="6" stroke-linecap="square"/>
<path d="M90.5096 90.5096V436.967" stroke="black" stroke-width="6" stroke-linecap="square"/>
<path d="M177.124 177.124V263.738" stroke="black" stroke-width="6" stroke-linecap="square"/>
<path d="M177.124 350.353V523.582" stroke="black" stroke-width="6" stroke-linecap="square"/>
<path d="M177.124 696.811V783.425" stroke="black" stroke-width="6" stroke-linecap="square"/>
<path d="M263.738 90.5096V177.124" stroke="black" stroke-width="6" stroke-linecap="square"/>
<path d="M263.738 350.353V436.967" stroke="black" stroke-width="6" stroke-linecap="square"/>
<path d="M263.738 610.196V696.811" stroke="black" stroke-width="6" stroke-linecap="square"/>
<path d="M350.353 3.89513V263.738" stroke="black" stroke-width="6" stroke-linecap="square"/>
<path d="M436.967 263.738V350.353" stroke="black" stroke-width="6" stroke-linecap="square"/>
<path d="M436.967 696.811V783.425" stroke="black" stroke-width="6" stroke-linecap="square"/>
<path d="M523.582 177.124V263.738" stroke="black" stroke-width="6" stroke-linecap="square"/>
<path d="M523.582 350.353V696.811" stroke="black" stroke-width="6" stroke-linecap="square"/>
<path d="M610.196 90.5096V177.124" stroke="black" stroke-width="6" stroke-linecap="square"/>
<path d="M610.196 263.738V350.353" stroke="black" stroke-width="6" stroke-linecap="square"/>
<path d="M610.196 610.196V696.811" stroke="black" stroke-width="6" stroke-linecap="square"/>
<path d="M696.811 177.124V263.738" stroke="black" stroke-width="6" stroke-linecap="square"/>
<path d="M696.811 696.811V783.425" stroke="black" stroke-width="6" stroke-linecap="square"/>
<path d="M783.425 3.89513V783.425" stroke="black" stroke-width="6" stroke-linecap="square"/>
</svg>
